<svg id="레이어_1" data-name="레이어 1" xmlns="http://www.w3.org/2000/svg" viewBox="0 0 61.62 73.57"><defs><style>.cls-1{fill:#3e3a39;}</style></defs><title>icon-related-01</title><path class="cls-1" d="M301.63,386.6c0-1.35-1.47-2.52-3.14-2.52s-3.14,1.17-3.14,2.52v10.06h6.29V386.6Z" transform="translate(-267.68 -384.08)"/><path class="cls-1" d="M294.09,399.17h-7.36c-1.84,0-4,.86-4,2.7v13.21l14.79-6.65,1-.46,1,0.47,13.35,5.87V401.88c0-1.84-.87-2.7-2.7-2.7H294.09Z" transform="translate(-267.68 -384.08)"/><polygon class="cls-1" points="19.98 54.07 42.36 54.07 56.56 38.22 47.6 34.18 46.47 33.67 45.23 33.11 30.91 26.64 15.41 33.81 14.04 34.44 13.13 34.86 5.73 38.28 19.98 54.07"/><path class="cls-1" d="M267.68,443.82a5.87,5.87,0,0,1,3.81,2c1.39,1.37,3.12,3.06,6.46,3.06s5.06-1.7,6.45-3.06c1.21-1.18,2-2,3.81-2s2.61,0.79,3.82,2c1.39,1.37,3.12,3.06,6.46,3.06s5.06-1.7,6.45-3.06c1.22-1.18,2-2,3.81-2s2.6,0.79,3.82,2c1.39,1.36,3.12,3.05,6.45,3.05s5.07-1.7,6.46-3.05a5.87,5.87,0,0,1,3.82-2V440c-3.77,0-5.07,1.69-6.46,3.05-1.21,1.19-2,2-3.82,2s-2.6-.79-3.81-2a10,10,0,0,0-3.91-2.65,8.06,8.06,0,0,0-2.55-.4,7.84,7.84,0,0,0-3.16.62,10.72,10.72,0,0,0-3.29,2.44c-1.22,1.19-2,2-3.81,2s-2.6-.79-3.81-2a10.7,10.7,0,0,0-3.29-2.44,7.83,7.83,0,0,0-3.16-.62,8.26,8.26,0,0,0-1.91.23,9.26,9.26,0,0,0-4.54,2.83c-1.21,1.19-2,2-3.81,2s-2.6-.79-3.81-2c-1.39-1.36-2.68-3.06-6.45-3.06v3.78Z" transform="translate(-267.68 -384.08)"/><path class="cls-1" d="M267.68,452.62a5.86,5.86,0,0,1,3.81,2c1.39,1.36,3.12,3.05,6.46,3.05S283,456,284.4,454.6c1.21-1.19,2-2,3.81-2s2.61,0.79,3.82,2c1.39,1.36,3.12,3.05,6.46,3.05s5.06-1.69,6.45-3.05c1.22-1.19,2-2,3.81-2s2.6,0.79,3.82,2c1.39,1.36,3.12,3.05,6.45,3.05s5.07-1.69,6.46-3.05a5.87,5.87,0,0,1,3.82-2v-3.77c-3.77,0-5.07,1.69-6.46,3-1.21,1.19-2,2-3.82,2s-2.6-.79-3.81-2c-1.39-1.36-3.12-3-6.46-3s-5.06,1.69-6.45,3c-1.21,1.19-2,2-3.81,2s-2.61-.79-3.82-2c-1.39-1.36-3.11-3-6.45-3s-5.06,1.69-6.45,3c-1.21,1.19-2,2-3.81,2s-2.6-.79-3.81-2c-1.39-1.36-2.68-3-6.45-3v3.77Z" transform="translate(-267.68 -384.08)"/></svg>