<svg id="레이어_1" data-name="레이어 1" xmlns="http://www.w3.org/2000/svg" viewBox="0 0 75.55 71.48"><defs><style>.cls-1{fill:#3e3a39;}</style></defs><title>icon-related-05</title><path class="cls-1" d="M302,400.12a1,1,0,1,0,0,2h15.9a1,1,0,1,0,0-2H302Z" transform="translate(-260.18 -386.5)"/><path class="cls-1" d="M316.24,398.58c0.74-3.69,3.54-8.74,3.54-8.74s-11.81-5.06-14.56-2.72c-1.1,1,1.62,4.56.61,5.61s-5.74,0-5.74,0a35.15,35.15,0,0,1,2.71,5.85h13.45Z" transform="translate(-260.18 -386.5)"/><path class="cls-1" d="M318.36,403.62a2.17,2.17,0,0,1-.48,0H302a2.73,2.73,0,0,1-.81-0.13c-10.35,9.26-16.25,22.88-16.95,31.92a11.12,11.12,0,1,0,10,18A29.58,29.58,0,0,0,309.93,458c13.35,0,25.8-9.29,25.8-20.77C335.72,428.17,329.56,414.7,318.36,403.62Zm-26.51,43.17a0.35,0.35,0,0,1-.05.23,0.36,0.36,0,0,1-.25.06H290l-0.55,2.44L288.86,452a0.25,0.25,0,0,1-.09.19,0.77,0.77,0,0,1-.25,0h-1.25a0.47,0.47,0,0,1-.24,0,0.31,0.31,0,0,1-.08-0.18l-1-4.88H285l-1,4.88a0.31,0.31,0,0,1-.08.18,0.47,0.47,0,0,1-.24,0h-1.27a0.51,0.51,0,0,1-.25,0A0.3,0.3,0,0,1,282,452l-1.12-4.88h-1.61A0.36,0.36,0,0,1,279,447a0.33,0.33,0,0,1-.06-0.24v-1.09a0.33,0.33,0,0,1,.06-0.24,0.37,0.37,0,0,1,.23-0.05h1.24L279.77,442a0.41,0.41,0,0,1,0-.29,0.4,0.4,0,0,1,.31-0.07h1.15l0.22,0a0.22,0.22,0,0,1,.1.2l0.77,3.57h1.38l0.72-3.57a0.23,0.23,0,0,1,.1-0.19,0.67,0.67,0,0,1,.23,0h1.34a0.66,0.66,0,0,1,.23,0,0.23,0.23,0,0,1,.1.19l0.75,3.57h1.41l0.75-3.57a0.25,0.25,0,0,1,.09-0.19,0.6,0.6,0,0,1,.23,0h1.17a0.33,0.33,0,0,1,.27.06,0.55,0.55,0,0,1,0,.29l-0.71,3.43h1.18a0.23,0.23,0,0,1,.3.29v1.09Zm18.07-2c-7.09,0-12.83-5.41-12.83-12.08s5.75-12.07,12.83-12.07,12.84,5.4,12.84,12.07S317,444.8,309.93,444.8Z" transform="translate(-260.18 -386.5)"/><path class="cls-1" d="M317.14,430.71l1-4.92a0.81,0.81,0,0,0,0-.42,0.46,0.46,0,0,0-.38-0.09h-1.68a0.87,0.87,0,0,0-.33,0,0.37,0.37,0,0,0-.12.27l-1.08,5.13h-2l-1.07-5.13a0.33,0.33,0,0,0-.15-0.27,1,1,0,0,0-.33,0h-1.92a1,1,0,0,0-.33,0,0.33,0.33,0,0,0-.14.27l-1,5.13h-2l-1.1-5.13a0.33,0.33,0,0,0-.14-0.28,1.34,1.34,0,0,0-.31,0h-1.65a0.36,0.36,0,0,0-.46.52l1.07,4.92h-1.78a0.55,0.55,0,0,0-.33.07,0.49,0.49,0,0,0-.08.34v1.57a0.47,0.47,0,0,0,.08.34,0.53,0.53,0,0,0,.33.07h2.32l1.61,7a0.43,0.43,0,0,0,.12.26,0.75,0.75,0,0,0,.36.05h1.82a0.69,0.69,0,0,0,.34-0.05,0.44,0.44,0,0,0,.11-0.26l1.49-7h1.32l1.51,7a0.42,0.42,0,0,0,.12.26,0.68,0.68,0,0,0,.34.05h1.8a1,1,0,0,0,.36,0,0.34,0.34,0,0,0,.14-0.27l1.59-7h2.28a0.33,0.33,0,0,0,.43-0.41v-1.57a0.53,0.53,0,0,0-.07-0.33,0.52,0.52,0,0,0-.36-0.08h-1.7Zm-10.52,5.48-0.52-3.08h1Zm3.18-5.48,0.27-1.72,0.29,1.72h-0.56Zm3.76,5.5-0.54-3.1h1.05Z" transform="translate(-260.18 -386.5)"/><path class="cls-1" d="M261.08,440.74h11.63a14,14,0,0,1,2.25-3.5H261.08a0.89,0.89,0,0,0-.89.89v1.72A0.89,0.89,0,0,0,261.08,440.74Z" transform="translate(-260.18 -386.5)"/><path class="cls-1" d="M261.08,452h11.5a14.07,14.07,0,0,1-1-3.5H261.08a0.89,0.89,0,0,0-.89.89v1.72A0.9,0.9,0,0,0,261.08,452Z" transform="translate(-260.18 -386.5)"/><path class="cls-1" d="M261.08,446.36h10.39a14,14,0,0,1,.48-3.5H261.08a0.89,0.89,0,0,0-.89.89v1.71A0.89,0.89,0,0,0,261.08,446.36Z" transform="translate(-260.18 -386.5)"/><path class="cls-1" d="M261.08,435.11h16.19a14,14,0,0,1,5.2-2.37V432.5a0.9,0.9,0,0,0-.89-0.89H261.08a0.89,0.89,0,0,0-.89.89v1.72A0.89,0.89,0,0,0,261.08,435.11Z" transform="translate(-260.18 -386.5)"/><rect class="cls-1" y="33.85" width="22.28" height="3.5" rx="0.89" ry="0.89"/><rect class="cls-1" y="39.48" width="22.28" height="3.5" rx="0.89" ry="0.89"/><polygon class="cls-1" points="22.85 62.72 23.21 60.57 22.49 60.57 22.85 62.72"/><polygon class="cls-1" points="25.07 58.9 25.46 58.9 25.26 57.7 25.07 58.9"/><path class="cls-1" d="M273.72,454.12H261.08a0.9,0.9,0,0,0-.89.89v1.72a0.9,0.9,0,0,0,.89.9h15.85A14.25,14.25,0,0,1,273.72,454.12Z" transform="translate(-260.18 -386.5)"/><polygon class="cls-1" points="27.35 60.73 27.7 62.73 27.91 61.48 28.06 60.57 27.32 60.57 27.35 60.73"/></svg>