<svg id="레이어_1" data-name="레이어 1" xmlns="http://www.w3.org/2000/svg" viewBox="0 0 49.73 79.77"><defs><style>.cls-1{fill:#3e3a39;}</style></defs><title>icon-related-06</title><path class="cls-1" d="M292.46,420.89a3,3,0,0,0-1.66-.36H288.9v3.31h1.82a3.09,3.09,0,0,0,1.67-.38A1.76,1.76,0,0,0,292.46,420.89Z" transform="translate(-273.16 -381)"/><path class="cls-1" d="M304.92,420.53H303v3.85h1.91a2.88,2.88,0,0,0,1.69-.42,1.7,1.7,0,0,0,.6-1.48,1.74,1.74,0,0,0-.6-1.49A2.77,2.77,0,0,0,304.92,420.53Z" transform="translate(-273.16 -381)"/><path class="cls-1" d="M320.82,452.49h-1.38V448.2h-3.32V422l4.21-2.35V418.5l-4.21-2.35v-4.07H301.46V394.57h7v-7.25h-7V381h-7.25v6.32h-7v7.25h7v17.51H279.93v4.07l-4.21,2.35v1.11l4.21,2.35V448.2h-3.32v4.28h-1.38a2.07,2.07,0,0,0-2.07,2.07v4.14a2.07,2.07,0,0,0,2.07,2.07h45.59a2.07,2.07,0,0,0,2.07-2.07v-4.14A2.07,2.07,0,0,0,320.82,452.49Zm-27.54-22.11a3.09,3.09,0,0,1-.16-0.6c0-.21-0.06-0.42-0.08-0.64s0-.43-0.06-0.64l0-.61c-0.06-.61-0.12-1.09-0.18-1.43a2.1,2.1,0,0,0-.27-0.79,0.83,0.83,0,0,0-.52-0.34,4.79,4.79,0,0,0-.91-0.07h-2.17v5.12h-1.67V419.52a0.47,0.47,0,0,1,.09-0.32,0.45,0.45,0,0,1,.33-0.1h3.28a5.27,5.27,0,0,1,1.49.2,3.81,3.81,0,0,1,1.19.57,2.67,2.67,0,0,1,.79,1,3,3,0,0,1,.29,1.34,2.13,2.13,0,0,1-.54,1.48,2.79,2.79,0,0,1-1.34.81,1.86,1.86,0,0,1,1.27.87,4.2,4.2,0,0,1,.46,1.57q0.06,0.67.1,1.16c0,0.33.05,0.61,0.08,0.87a6.19,6.19,0,0,0,.16.74,2.94,2.94,0,0,0,.31.69h-1.91Zm5.55,0h-1.66V419.07h1.66v11.33Zm9.76-6.45a3.09,3.09,0,0,1-.81,1,3.36,3.36,0,0,1-1.17.62,4.84,4.84,0,0,1-1.4.2H303v4.59h-1.66V419.52a0.47,0.47,0,0,1,.08-0.31,0.44,0.44,0,0,1,.32-0.09h3.29a5,5,0,0,1,1.48.22,3.66,3.66,0,0,1,1.22.63,3,3,0,0,1,.83,1A3.67,3.67,0,0,1,308.6,423.94Z" transform="translate(-273.16 -381)"/></svg>