<svg id="레이어_1" data-name="레이어 1" xmlns="http://www.w3.org/2000/svg" viewBox="0 0 60.05 71.13"><defs><style>.cls-1{fill:#3e3a39;}</style></defs><title>icon-related-02</title><path class="cls-1" d="M327,424.94l-9.09-14.56,1.38-1.85-4.62-5.88a6.16,6.16,0,1,0-10.23-.09l-4,6,1.82,1.54-8.71,13.64s-0.67,1.82.23,2.7a2.4,2.4,0,0,0,2.66.15l6.7-10.4,1.54,2.08s-7.09,18-7.94,20.26a1.94,1.94,0,0,0,1.54,2.7h6s-0.09,12.49-.09,12.75a2.42,2.42,0,0,0,2.44,2.41A2.46,2.46,0,0,0,309,454c0-.16,0-12.75,0-12.75h1.83s0,12.73,0,12.75a2.44,2.44,0,0,0,4.88,0c0-.05,0-12.83,0-12.83h5.75c3.16,0,1.46-3.39,1.46-3.39L315,419l1.69-2.31,6.16,9.78s2.08,2.31,3.54,1.23A2.18,2.18,0,0,0,327,424.94ZM313,418.55l8.4,20.72h-23.5l8.83-20.85s-2.75-3.3-2.75-5c0-1,1.2-3.62,5.93-3.54s5.74,2.77,5.74,3.54C315.68,415,313,418.55,313,418.55Zm4-9.55a12.32,12.32,0,0,0-7.47-2.23c-4.78,0-6.32,2.23-6.32,2.23l-0.59-.46,3-4.62a6.2,6.2,0,0,0,3.85,1.77,6.68,6.68,0,0,0,4.16-1.77l3.81,4.54Z" transform="translate(-267.21 -385.3)"/><path class="cls-1" d="M297.86,385.51A4.15,4.15,0,0,0,293.4,387a4.25,4.25,0,0,0-4.67-1.46c-3,1.09-2.93,4.58-1.35,7.31,1.42,2.46,5.69,5.41,6,5.64,0,0,4.61-3.18,6-5.64C301,390.12,300.49,386.25,297.86,385.51Zm-8.14,2.07a1.3,1.3,0,0,0-1,.55,1.44,1.44,0,0,0-.31.88,1.17,1.17,0,0,0,.07.41h0a0.47,0.47,0,0,1-.23.61,0.48,0.48,0,0,1-.19,0,0.46,0.46,0,0,1-.42-0.27,2.13,2.13,0,0,1-.16-0.81,2.36,2.36,0,0,1,.5-1.43,2.2,2.2,0,0,1,1.71-.92h0.05A0.46,0.46,0,0,1,289.71,387.58Z" transform="translate(-267.21 -385.3)"/><circle class="cls-1" cx="11.79" cy="30.86" r="0.77"/><circle class="cls-1" cx="11.79" cy="28.11" r="0.77"/><circle class="cls-1" cx="11.74" cy="13.37" r="6.56"/><circle class="cls-1" cx="11.79" cy="25.54" r="0.77"/><path class="cls-1" d="M295.45,423.32l-7.13-13.51c-0.24-.67-2.48-3.07-3.78-3.29-2.17,5.06-5.46,13.54-5.46,13.54s-3.08-7.55-5.79-13.6c-3.22.48-6,1.74-6,5,0,0-.1,18.55-0.1,18.59a2.19,2.19,0,0,0,2.13,2.39,2.11,2.11,0,0,0,2-2.39c0-.06.09-15.5,0.07-15.83s1.12-1,1.12.23l0.13,13.77h0L272.94,453s0,0,0,.06a2.72,2.72,0,0,0,2.74,2.37,2.59,2.59,0,0,0,2.61-2.37h0V430.3l0.39-.12,0.81,0.11V453h0c0,1.31,1.55,2.37,2.88,2.37A2.54,2.54,0,0,0,285,453h0v-38.6c0.07-2-.55-1.49.93,0,0.26,0.26,5.95,10.51,5.95,10.51s1.69,3.1,3.66,1.55C296.87,425.41,295.45,423.32,295.45,423.32Z" transform="translate(-267.21 -385.3)"/><polygon class="cls-1" points="14.74 20.64 11.46 22.49 8.43 20.64 8.41 25.16 11.51 23 14.74 25.11 14.74 20.64"/></svg>