<svg id="레이어_1" data-name="레이어 1" xmlns="http://www.w3.org/2000/svg" viewBox="0 0 117.91 171.48"><defs><style>.cls-1{fill:#002b5e;}</style></defs><title>membership-cat-05</title><path class="cls-1" d="M267.85,487c-3.47-2.15-6.26-4.75-7.86-8.64a19.9,19.9,0,0,1-7.86,10l-3-2.42c6.35-4,8.87-8.5,8.87-15.4v-3.75h3.75v3.79c0,6.58,3.06,11.2,8.45,13.85ZM256,498.52c0-5,5.48-8.23,14.26-8.23s14.17,3.25,14.17,8.23-5.16,8.23-14.17,8.23C261.49,506.75,256,503.6,256,498.52Zm3.88,0c0,3.52,4.57,5.39,10.38,5.39s10.24-2,10.24-5.35-4.34-5.39-10.24-5.39S259.89,495,259.89,498.52Zm15.72-32.31v9.14h5v-9.82h3.47v24.63H280.6V478.6h-5v10.15H272.1V466.21h3.52Z" transform="translate(-238.95 -335.27)"/><path class="cls-1" d="M316.47,473.39c5.71,0,9.55,2,9.55,5,0,2.51-3.11,4.34-7.59,4.75V486a115.36,115.36,0,0,0,12.06-1v2.56a114.91,114.91,0,0,1-16,1.1h-11V486h11.11v-2.88c-4.57-.37-7.72-2.15-7.72-4.71C306.92,475.45,310.81,473.39,316.47,473.39Zm-11.11-3.93h22.3V472h-22.3v-2.56Zm29.34,21.94a0.79,0.79,0,0,1,1,1v6.35a0.79,0.79,0,0,1-1,1h-21V503h23v2.7H310.81a0.79,0.79,0,0,1-1-1v-6.63a0.79,0.79,0,0,1,1-1h21v-3h-22v-2.74h24.86Zm-18.23-15.58c-3.61,0-5.89,1-5.89,2.7,0,1.42,2.29,2.51,5.89,2.51s5.85-1.1,5.85-2.51C322.32,476.82,320.08,475.81,316.47,475.81Zm-5.58-10.65h11.29v2.51H310.9v-2.51Zm24.72,0.37v9.92h5.67v3.11h-5.67v10.88H332.1v-23.9h3.52Z" transform="translate(-238.95 -335.27)"/><path class="cls-1" d="M304.79,361.1a3.95,3.95,0,1,0,1.16-2.79,4,4,0,0,0-1.16,2.79h0Zm0,0" transform="translate(-238.95 -335.27)"/><path class="cls-1" d="M330.83,383.89a3.95,3.95,0,1,0,2.79,1.16,4,4,0,0,0-2.79-1.16h0Zm0,0" transform="translate(-238.95 -335.27)"/><path class="cls-1" d="M243.94,391.79a4,4,0,1,0-2.79-1.16,4,4,0,0,0,2.79,1.16h0Zm0,0" transform="translate(-238.95 -335.27)"/><path class="cls-1" d="M290.72,444a4,4,0,1,0,2.79,1.16,4,4,0,0,0-2.79-1.16h0Zm0,0" transform="translate(-238.95 -335.27)"/><path class="cls-1" d="M330.83,345a3.95,3.95,0,1,0-2.79-1.16,4,4,0,0,0,2.79,1.16h0Zm0,0" transform="translate(-238.95 -335.27)"/><path class="cls-1" d="M330.4,357.8a4,4,0,0,0,.69,3.74l2.34,2.85-0.27,3.75a4,4,0,0,0,5.48,3.92l3.21-1.37,3.21,1.37a3.95,3.95,0,0,0,5.49-3.92l-0.27-3.75,2.33-2.85a4,4,0,0,0-2.09-6.33l-3.41-.86-1.87-3.14a4,4,0,0,0-6.79,0l-1.87,3.14-3.41.86a4,4,0,0,0-2.78,2.59h0Zm0,0" transform="translate(-238.95 -335.27)"/><path class="cls-1" d="M241.9,357.27a3.95,3.95,0,0,0,5.48,3.92l3.21-1.37,3.21,1.37a3.95,3.95,0,0,0,5.49-3.92L259,353.52l2.33-2.85a4,4,0,0,0-2.09-6.33l-3.41-.86L254,340.34a4,4,0,0,0-3.39-1.93h0a4,4,0,0,0-3.39,1.93l-1.87,3.13-3.41.86a3.95,3.95,0,0,0-2.09,6.33l2.33,2.85Zm0,0" transform="translate(-238.95 -335.27)"/><path class="cls-1" d="M356.66,424a3.94,3.94,0,0,0-2.78-2.59l-3.41-.86-1.87-3.13a3.95,3.95,0,0,0-6.79,0l-1.87,3.13-3.41.86a4,4,0,0,0-2.09,6.33l2.33,2.85-0.27,3.75a4,4,0,0,0,5.49,3.92l3.21-1.37,3.21,1.37a4,4,0,0,0,5.49-3.92l-0.27-3.76,2.33-2.86a4,4,0,0,0,.69-3.74h0Zm0,0" transform="translate(-238.95 -335.27)"/><path class="cls-1" d="M259.29,431.82l-2.49-.63-1.36-2.29a2.88,2.88,0,0,0-5,0l-1.36,2.29-2.49.63a2.88,2.88,0,0,0-1.53,4.62l1.7,2.09-0.2,2.74a2.88,2.88,0,0,0,4,2.86l2.35-1,2.35,1a2.89,2.89,0,0,0,4-2.86l-0.2-2.74,1.7-2.09a2.88,2.88,0,0,0-1.53-4.62h0Zm0,0" transform="translate(-238.95 -335.27)"/><path class="cls-1" d="M288,350.38l-0.27,3.75a3.95,3.95,0,0,0,5.48,3.92l3.21-1.37,3.21,1.37a4,4,0,0,0,5.49-3.92l-0.27-3.75,2.33-2.85a4,4,0,0,0-2.09-6.33l-3.41-.86-1.87-3.13a4,4,0,0,0-6.79,0l-1.87,3.13-3.41.86a4,4,0,0,0-2.09,6.33Zm0,0" transform="translate(-238.95 -335.27)"/><path class="cls-1" d="M315.24,393.52a48.83,48.83,0,0,1,11-13.54,6.91,6.91,0,0,0-8.32-11A61.09,61.09,0,0,0,303.6,386c-5.91,10.13-12.16,27-8.37,49.74a6.91,6.91,0,1,0,13.64-2.27c-2.46-14.77-.32-28.22,6.37-40h0Zm0,0" transform="translate(-238.95 -335.27)"/><path class="cls-1" d="M279.38,386A61.05,61.05,0,0,0,265,368.94a6.91,6.91,0,0,0-8.33,11,48.67,48.67,0,0,1,11,13.54c6.69,11.76,8.83,25.21,6.37,40a6.91,6.91,0,1,0,13.64,2.27c3.79-22.75-2.46-39.61-8.37-49.74h0Zm0,0" transform="translate(-238.95 -335.27)"/><path class="cls-1" d="M274.26,367.29c0.36,0.19,8.83,4.69,7.59,12.83a6.91,6.91,0,0,0,5.79,7.88,7,7,0,0,0,1,.08,6.92,6.92,0,0,0,6.83-5.87c1.16-7.62-1.14-14.8-6.66-20.77a32.07,32.07,0,0,0-8.45-6.52,7,7,0,0,0-8.75,2.26,7,7,0,0,0-.53.91,6.86,6.86,0,0,0,3.13,9.21h0Zm0,0" transform="translate(-238.95 -335.27)"/><path class="cls-1" d="M257.79,398a31.82,31.82,0,0,0-10.07-3.36,6.92,6.92,0,0,0-7.47,5,6.88,6.88,0,0,0,5.76,8.65c0.4,0.06,9.83,1.52,11.32,9.56a6.88,6.88,0,0,0,8,5.5,7,7,0,0,0,1-.27,6.88,6.88,0,0,0,4.49-7.75c-1.4-7.53-5.92-13.53-13.05-17.33h0Zm0,0" transform="translate(-238.95 -335.27)"/><path class="cls-1" d="M345.21,403.45a6.82,6.82,0,0,0-.2-1,6.92,6.92,0,0,0-7.48-5,31.78,31.78,0,0,0-10.07,3.36c-7.13,3.8-11.65,9.79-13.05,17.33a6.87,6.87,0,0,0,4.49,7.75,6.51,6.51,0,0,0,1,.27,6.88,6.88,0,0,0,8-5.5c1.5-8,10.92-9.5,11.32-9.56a6.82,6.82,0,0,0,6-7.63h0Zm0,0" transform="translate(-238.95 -335.27)"/></svg>