<svg id="레이어_1" data-name="레이어 1" xmlns="http://www.w3.org/2000/svg" viewBox="0 0 154.75 159.3"><defs><style>.cls-1{fill:#002b5e;}</style></defs><title>membership-cat-01</title><path class="cls-1" d="M240.9,473.06v6.08h16.68v3.11H220.52v-3.11H237.2v-6.08h3.7ZM253,463.42H241.13c0.23,5,8.68,8,14.3,8.82l-2.29,2.7c-4.48-.82-11.47-3.06-14.12-7.72-2.56,4.21-8.55,6.67-14.21,7.72l-2.29-2.74c6.4-1,14.17-3.93,14.35-8.77H225.09v-3H253v3ZM224.54,493c0-4.39,4.85-7.49,14.53-7.49s14.44,3.2,14.44,7.54-4.66,7.5-14.44,7.5S224.54,497.33,224.54,493Zm4,0c0,3,3.88,4.75,10.56,4.75,6.44,0,10.42-1.78,10.42-4.71s-3.93-4.84-10.42-4.84C232.4,488.23,228.52,490,228.52,493Z" transform="translate(-220.52 -341.27)"/><path class="cls-1" d="M261.84,464.15h23.21v2.79H261.84v-2.79Zm11.56,4.66c6,0,10.05,2.7,10.05,6.54s-4.25,6.54-10.05,6.54-10.05-2.74-10.05-6.54S267.46,468.81,273.4,468.81Zm0,2.61c-4,0-6.35,1.55-6.35,3.93s2.38,4,6.35,4,6.35-1.74,6.35-4S277.38,471.42,273.4,471.42Zm5.94-9.46h-12v-2.79h12V462Zm-11.52,36.47v-14h3.61v4.25h18.28V484.4h3.52v14a0.79,0.79,0,0,1-1,1H268.78A0.79,0.79,0,0,1,267.82,498.43Zm3.61-2h18.28v-4.84H271.43v4.84Zm21.75-37.15v10.28h5.62v3.11h-5.62v9.6h-3.61v-23h3.61Z" transform="translate(-220.52 -341.27)"/><path class="cls-1" d="M321.62,479.69a0.79,0.79,0,0,1-1,1H304.29a0.79,0.79,0,0,1-1-1v-19h3.56v6.63h11.24v-6.63h3.47v4.66h8.77v-6.08H334v25.09h-3.61v-7.86h-8.77v3.2Zm-15.13,12.89c0-4.94,5.39-8,13.94-8s14,3.15,14,8.09-5.35,8-14,8S306.49,497.56,306.49,492.58Zm0.41-15h11.24v-7.17H306.9v7.17Zm3.38,14.95c0,3.29,4.21,5.16,10.14,5.16s10.19-1.83,10.19-5-4.25-5.21-10.19-5.21S310.28,489.24,310.28,492.53Zm11.33-24.22v5.16h8.77v-5.16h-8.77Z" transform="translate(-220.52 -341.27)"/><path class="cls-1" d="M350.54,486.59v-6.44h-9.23v-3.06h12.16a135.22,135.22,0,0,0,15.72-1.14V479a116.87,116.87,0,0,1-15,1.05v6.54h-3.61ZM354.43,459c6.54,0,10.1,3.38,10.1,7.77s-3.61,7.54-10.1,7.54-10-3.15-10-7.54S347.89,459,354.43,459Zm-5.58,39.89a0.79,0.79,0,0,1-1-1v-9.23h3.75v7.08h23.63v3.11H348.85ZM348,466.8c0,2.61,1.64,4.48,6.44,4.48s6.44-1.87,6.44-4.48-1.6-4.66-6.44-4.66S348,464.2,348,466.8Zm26.41-7.49v30.85h-3.52v-3.93h-9.6V483.3h9.6v-24h3.52Z" transform="translate(-220.52 -341.27)"/><path class="cls-1" d="M360.3,425.78a5.05,5.05,0,0,0,.25-1.54V367.38a4.88,4.88,0,0,0-4.88-4.88H328.51V423a8.2,8.2,0,0,1-.49,2.76h-3.19a5.05,5.05,0,0,0,.25-1.54V346.15a4.88,4.88,0,0,0-4.88-4.88H277.59a4.88,4.88,0,0,0-4.88,4.88v78.08a4.78,4.78,0,0,0,.26,1.54h-3.19a8.25,8.25,0,0,1-.49-2.76V362.5H242.78a4.87,4.87,0,0,0-4.88,4.88v56.85a5.05,5.05,0,0,0,.25,1.54h-8.39v10.09H368V425.78H360.3ZM252.54,405.85h-7v-7h7v7Zm0-12.28h-7v-7h7v7Zm0-11.88h-7v-7h7v7Zm10.89,24.16h-7v-7h7v7Zm0-12.28h-7v-7h7v7Zm0-11.88h-7v-7h7v7Zm46.32,43.76H289.22V399.83h20.54v25.63ZM298.9,377.87a17.2,17.2,0,1,1,17.2-17.2,17.2,17.2,0,0,1-17.2,17.2h0Zm44.41,28h-7v-7h7v7Zm0-12.28h-7v-7h7v7Zm0-11.88h-7v-7h7v7Zm10.89,24.16h-7v-7h7v7Zm0-12.28h-7v-7h7v7Zm0-11.88h-7v-7h7v7Zm-51-25.29h6.59v8.54h-6.59v6.59h-8.54v-6.59H288V356.4h6.6v-6.59h8.54v6.59Zm0,0" transform="translate(-220.52 -341.27)"/></svg>