<svg id="레이어_1" data-name="레이어 1" xmlns="http://www.w3.org/2000/svg" viewBox="0 0 546.85 128.78"><defs><style>.cls-1{fill:#044592;}.cls-2{fill:#8aba29;}.cls-3{fill:#2196d4;}</style></defs><title>membership-item-01</title><path class="cls-1" d="M556.2,466.36v18.2h3.57v-7.07h5.18s1.91-.21,1.91,2.09v5.05h3.26v-4.79s0.09-3.1-1.71-3.8c3.45-3.79,1.9-8.43-1.38-9.72l-10.82,0h0Zm10.05,2.88a3.5,3.5,0,0,1-.09,5.18h-6.8v-5.18h6.89Z" transform="translate(-23.5 -356.04)"/><polygon class="cls-1" points="498.92 110.28 512.57 110.28 512.57 113.26 507.68 113.26 507.68 128.49 504.78 128.49 504.78 113.18 498.92 113.18 498.92 110.28 498.92 110.28"/><path class="cls-1" d="M453.51,466.3h3.32v13.15s-0.33,2.16,1.73,2.16h5.8l0,3h-6.75a4.43,4.43,0,0,1-4.12-4.81V466.3h0Z" transform="translate(-23.5 -356.04)"/><path class="cls-1" d="M443.52,471l-2.38,6.32h4.68l-2.3-6.31h0Zm-1.79-4.62H445l7.13,18.3h-3.53l-1.66-4.35H440l-1.74,4.35H435l6.75-18.3h0Z" transform="translate(-23.5 -356.04)"/><path class="cls-1" d="M506.28,466.32v18.36h3.52V469.11h5a1.32,1.32,0,0,1,1.45,1.43v14.14h3.48V469.35a3.12,3.12,0,0,0-3.18-3H506.28Z" transform="translate(-23.5 -356.04)"/><polygon class="cls-1" points="389.67 110.23 392.55 110.23 392.55 128.59 389.67 128.59 389.67 110.23 389.67 110.23"/><polygon class="cls-1" points="434.52 85.15 442.77 85.15 442.72 93.1 459 93.1 459.1 85.15 467.32 85.15 467.3 93.28 478.63 93.28 478.63 99.16 422.77 99.16 422.77 92.99 434.44 93.02 434.52 85.15 434.52 85.15"/><path class="cls-1" d="M448.92,398.49V405l42.27-.09v9.72H448.95V433c0,3.82,1.15,4.37,4.05,4.37l47.5,0v-5.86l-42,0V421.18h42v-17.4a5,5,0,0,0-4.69-5.28h-47Z" transform="translate(-23.5 -356.04)"/><path class="cls-1" d="M353.31,398.54h10.08v56.65H353.31v-5.51c-1.31.83-2.27,2.75-5.14,2.75h-38.6v-5.87l43.73-.06v-48h0Z" transform="translate(-23.5 -356.04)"/><path class="cls-1" d="M422.54,398.49H432.6v56.65H422.54v-5.51c-1.33.83-2.29,2.75-5.16,2.75H378.8v-5.87h43.68l0.05-48h0Z" transform="translate(-23.5 -356.04)"/><polygon class="cls-1" points="322.78 110.23 325.7 110.23 325.7 128.64 322.78 128.64 322.78 110.23 322.78 110.23"/><path class="cls-1" d="M339.48,478.44c-0.21,4-9.43,3.81-9.62,0V466.27h-3.35v12.15c0,3.14,2.12,6.19,8.37,6.19,5,0,8-2.7,8-6.19l0-12.15h-3.39v12.17h0Z" transform="translate(-23.5 -356.04)"/><path class="cls-1" d="M271,466.24v18.33h3.57V469.34h5.12a1.41,1.41,0,0,1,1.44,1.27v14h3.51V469.41a3.37,3.37,0,0,0-3.67-3.17H271Z" transform="translate(-23.5 -356.04)"/><path class="cls-1" d="M300.51,473.52h-7.69v3.24H297v4.55h-4.12c-1.18,0-2.78-3.08-2.73-6.08,0.05-3.37,1.06-5.88,2.71-5.88h7.33l0.26-3.05h-7.69c-3.86.21-6,5-6,9.14,0.31,6,3.3,9.3,6.22,9.12h7.48v-11h0Z" transform="translate(-23.5 -356.04)"/><polygon class="cls-1" points="279.27 118.6 282.77 118.6 282.77 121.41 279.27 121.41 279.27 118.6 279.27 118.6"/><path class="cls-1" d="M322.87,466.27l-0.05,3.08H315.9s-3.67,0-3.67,4.56h10.59v2.91H312.23s0,5,3.67,5h7l0.05,2.83h-7c-9.19,0-9.19-18.36,0-18.36l7,0h0Z" transform="translate(-23.5 -356.04)"/><path class="cls-1" d="M391.63,466.27l-0.05,3.08h-6.91s-3.67,0-3.67,4.56h10.58v2.91H381s0,5,3.67,5h7l0,2.83h-7c-9.19,0-9.19-18.36,0-18.36l7,0h0Z" transform="translate(-23.5 -356.04)"/><path class="cls-1" d="M501.89,466.27l0,3.08h-7s-3.66,0-3.66,4.56h10.61v2.91H491.24s0,5,3.66,5h7l0,2.83h-7c-9.16,0-9.16-18.36,0-18.36l7,0h0Z" transform="translate(-23.5 -356.04)"/><path class="cls-1" d="M551.85,466.27l-0.05,3.08h-6.94s-3.65,0-3.65,4.56H551.8v2.91H541.21s0,5,3.65,5h7l0,2.83h-7c-9.2,0-9.2-18.36,0-18.36l7,0h0Z" transform="translate(-23.5 -356.04)"/><path class="cls-1" d="M234.87,466.32v18.32h8.71c8.25,0,8.61-18.32,0-18.32h-8.71Zm7.6,3c5.59,0,5.59,12.53.09,12.53h-4.3V469.29h4.21Z" transform="translate(-23.5 -356.04)"/><path class="cls-1" d="M395.13,466.32v18.32h8.69c8.27,0,8.63-18.32,0-18.32h-8.69Zm7.58,3c5.59,0,5.59,12.53.09,12.53h-4.29V469.29h4.2Z" transform="translate(-23.5 -356.04)"/><polygon class="cls-1" points="342.64 122.9 338.3 110.17 333.2 110.17 333.2 128.53 336.87 128.53 336.8 115.85 340.66 128.53 344.21 128.53 348.28 116.34 348.28 128.78 351.87 128.78 352.02 110.22 347.06 110.22 342.64 122.9 342.64 122.9"/><path class="cls-1" d="M425.31,484.61h8.29v-3.28H426c-5.21-.67-5-11.7,0-11.7h7.52v-3.27h-8.3c-8.51,1.19-8.78,17.15.08,18.25h0Z" transform="translate(-23.5 -356.04)"/><path class="cls-1" d="M477.27,484.69H486v-3.37h-8c-4.86,0-4.56-11.62,0-11.62h8v-3.38h-8.81c-8.74,0-8.56,18.37.05,18.37h0Z" transform="translate(-23.5 -356.04)"/><polygon class="cls-1" points="516.14 85.35 516.14 75.55 528.9 75.55 528.9 69.51 490.65 69.51 490.48 76.47 506.51 76.33 506.51 85.35 516.14 85.35 516.14 85.35"/><path class="cls-1" d="M551.46,422.58h6.22v17.89H563c3.06,0,4.51-1.64,4.51-5v-37.3H557.2V416h-5.74v6.54h0Z" transform="translate(-23.5 -356.04)"/><path class="cls-1" d="M569.48,449.08H527.83V437H517.25v13.45c0,3.92,2.08,4.67,5.43,4.67h46.8v-6.06h0Z" transform="translate(-23.5 -356.04)"/><path class="cls-1" d="M532.75,416.32c-4.52,0-8.21-2.47-8.21-5.44s3.69-5.39,8.21-5.39,8.2,2.42,8.2,5.39-3.7,5.44-8.2,5.44h0Zm0-18.12c-10.62,0-19.21,5.65-19.21,12.62s8.58,12.81,19.21,12.81,19.2-5.84,19.2-12.81-8.59-12.62-19.2-12.62h0Z" transform="translate(-23.5 -356.04)"/><path class="cls-1" d="M261,481.31c-2.36,0-4.28-2.68-4.28-6s1.92-6,4.28-6,4.27,2.68,4.27,6-1.9,6-4.27,6h0Zm-0.19-15.08c-4.3,0-7.79,4.12-7.79,9.19s3.5,9.18,7.79,9.18,7.81-4.1,7.81-9.18-3.51-9.19-7.81-9.19h0Z" transform="translate(-23.5 -356.04)"/><path class="cls-1" d="M397.62,433.77c-4.58,0-8.3-6.5-8.3-14.5s3.72-14.51,8.3-14.51,8.32,6.51,8.32,14.51-3.74,14.5-8.32,14.5h0Zm-0.19-35.41c-10.24,0-18.51,9.33-18.51,20.86s8.27,20.87,18.51,20.87,18.5-9.35,18.5-20.87-8.28-20.86-18.5-20.86h0Z" transform="translate(-23.5 -356.04)"/><path class="cls-1" d="M328,433.77c-4.59,0-8.3-6.5-8.3-14.5s3.71-14.51,8.3-14.51,8.29,6.51,8.29,14.51-3.71,14.5-8.29,14.5h0Zm-0.22-35.41c-10.23,0-18.5,9.33-18.5,20.86s8.27,20.87,18.5,20.87,18.5-9.35,18.5-20.87-8.27-20.86-18.5-20.86h0Z" transform="translate(-23.5 -356.04)"/><path class="cls-1" d="M265.92,448.5c-9.58,0-17.34-4.4-17.34-9.82s7.77-9.79,17.34-9.79,17.36,4.39,17.36,9.79-7.77,9.82-17.36,9.82h0Zm29-20.11v-6h-25V418h23v-6.1h-45.7v-7.21H293v-5.72H237.51v13.8a4.8,4.8,0,0,0,5,5h18.07v4H235.26v5.89h7.94l2,0c-4.51,2.93-7.26,6.84-7.26,11.12,0,9.1,12.37,16.47,27.64,16.47s27.67-7.38,27.67-16.47c0-4-2.34-7.59-6.25-10.42H295Z" transform="translate(-23.5 -356.04)"/><path class="cls-2" d="M83.78,376.49v-2.42a18,18,0,0,0-18-18H63.35v20.45H83.78Z" transform="translate(-23.5 -356.04)"/><path class="cls-1" d="M23.5,395.89v2.4a18,18,0,0,0,18,18.05H44V395.89H23.5Z" transform="translate(-23.5 -356.04)"/><path class="cls-3" d="M44,356H41.54a18,18,0,0,0-18,18v2.42H44V356h0Z" transform="translate(-23.5 -356.04)"/><path class="cls-1" d="M83.83,443H75.19V407.71h5c0.8,0,3.6.37,3.6,4V443h0Zm1.4-47.13H63.35v59H95.12V407.17c-0.73-8.19-6.54-10.59-9.89-11.28h0Z" transform="translate(-23.5 -356.04)"/><path class="cls-2" d="M128,407.31V395.89H97.53v50.34c0.41,7.51,6.17,8.53,8.41,8.62H128V443.44H108.31v-13H128V419H108.31V407.31H128Z" transform="translate(-23.5 -356.04)"/><path class="cls-2" d="M186,407.31h21.4V395.89H174.32v50.34c0.49,7.51,6.74,8.53,9.17,8.62h24V443.44H186V407.31h0Z" transform="translate(-23.5 -356.04)"/><path class="cls-1" d="M161,395.89H131.44v59h11.78V407.17h3.39v47.69H156V407.17h3.39v47.69h11.77V407.13c0-9.82-7.35-11.12-10.18-11.24h0Z" transform="translate(-23.5 -356.04)"/></svg>