<svg id="레이어_1" data-name="레이어 1" xmlns="http://www.w3.org/2000/svg" viewBox="0 0 540.38 158.07"><defs><style>.cls-1{fill:#005bac;}.cls-2{fill:#009fb9;}</style></defs><title>membership-item-02</title><polygon class="cls-1" points="205.96 59.47 205.96 90.42 196.12 90.42 196.12 67.93 169.92 67.93 169.92 59.47 205.96 59.47"/><path class="cls-1" d="M382.88,405a15.47,15.47,0,0,1,5,11.65,15,15,0,0,1-5,11.44,17.22,17.22,0,0,1-23.78,0,15.24,15.24,0,0,1-4.89-11.44A15.71,15.71,0,0,1,359.11,405a17.56,17.56,0,0,1,23.78,0m-17,6.19a7.66,7.66,0,0,0-2.11,5.49,7.52,7.52,0,0,0,7.41,7.49,6.71,6.71,0,0,0,5-2.3,7.26,7.26,0,0,0,2.23-5.19,7.47,7.47,0,0,0-2.23-5.49,6.82,6.82,0,0,0-5-2.19,7.12,7.12,0,0,0-5.3,2.19" transform="translate(-27.54 -342.3)"/><path class="cls-1" d="M307.15,405c3.32,3.22,5.48,7.1,5.48,11.65a15.18,15.18,0,0,1-5,11.44,17.24,17.24,0,0,1-23.8,0,15.22,15.22,0,0,1-4.9-11.44c0-4.55,2.09-8.43,5.38-11.65s6.8-3.22,11.48-3.22,8,0.13,11.36,3.22m-16.62,7a6.91,6.91,0,0,0-2.09,5.11,6.77,6.77,0,0,0,2.09,4.9,7.51,7.51,0,0,0,5.3,2.12,6.89,6.89,0,0,0,5.07-2.12,6.71,6.71,0,0,0,0-10,6.94,6.94,0,0,0-5.07-2.05,7.34,7.34,0,0,0-5.3,2.05" transform="translate(-27.54 -342.3)"/><path class="cls-1" d="M539.56,405a15.71,15.71,0,0,1,5,11.65,15.24,15.24,0,0,1-5,11.44,17.27,17.27,0,0,1-23.82,0,15.22,15.22,0,0,1-4.89-11.44A15.69,15.69,0,0,1,515.74,405a17.62,17.62,0,0,1,23.82,0m-17.64,6.06a8.22,8.22,0,0,0-2.31,6,8.22,8.22,0,0,0,8.16,8.2,7.35,7.35,0,0,0,5.56-2.51,8.17,8.17,0,0,0,0-11.66,7.53,7.53,0,0,0-5.56-2.4,7.88,7.88,0,0,0-5.85,2.4" transform="translate(-27.54 -342.3)"/><path class="cls-1" d="M255.94,439.19a15.57,15.57,0,0,1,5,11.64,15.21,15.21,0,0,1-5,11.45,17.3,17.3,0,0,1-23.82,0,15.39,15.39,0,0,1-4.9-11.45,15.76,15.76,0,0,1,4.9-11.64,17.52,17.52,0,0,1,23.82,0m-17.07,6.18a7.57,7.57,0,0,0-2.12,5.45,7.32,7.32,0,0,0,2.12,5.24,7.23,7.23,0,0,0,5.28,2.3,6.72,6.72,0,0,0,5.06-2.3,7.57,7.57,0,0,0,0-10.69,6.68,6.68,0,0,0-5.06-2.17,7,7,0,0,0-5.28,2.17" transform="translate(-27.54 -342.3)"/><polygon class="cls-1" points="248.63 67.7 248.63 59.47 263.23 59.47 263.23 55.24 273.56 55.24 273.56 59.47 288.06 59.47 288.06 67.7 248.63 67.7"/><path class="cls-1" d="M518,464.59a6.18,6.18,0,0,1-6.21-6.15l0-11.4h9.84v9.11h46.26v8.43H518Z" transform="translate(-27.54 -342.3)"/><path class="cls-1" d="M438.74,433.67a6.18,6.18,0,0,1-6.18-6.16V414h46.5V409.5H433.28v-7.75H483.2a6.15,6.15,0,0,1,6.18,6.14v13.54H442.89V426h47.34v7.74h-11v5.63h15.48v8.26H427.41V439.4h15.48V433.7Zm14.48,5.73H469V433.7H453.23v5.71Z" transform="translate(-27.54 -342.3)"/><path class="cls-1" d="M335.69,441.41a6.13,6.13,0,0,1-6.15,6.15H275.65v-8.45h50.23V401.75h9.81v39.66Z" transform="translate(-27.54 -342.3)"/><path class="cls-1" d="M411.7,441.41a6.14,6.14,0,0,1-6.16,6.15H351.65v-8.45h50.23V401.75h9.84Z" transform="translate(-27.54 -342.3)"/><polygon class="cls-1" points="222.58 59.47 222.58 63.63 214.02 63.62 214.02 71.53 222.6 71.53 222.6 77.01 214.02 77.01 214.02 84.83 222.6 84.83 222.6 90.44 232.41 90.44 232.41 59.47 222.58 59.47"/><polygon class="cls-1" points="478.22 86.63 478.22 94.54 496.42 94.54 496.42 105.22 506.35 105.22 506.35 94.54 521.08 94.54 521.08 86.63 478.22 86.63"/><polygon class="cls-1" points="540.38 59.42 530.52 59.45 530.52 86.49 523.97 86.51 523.97 95.01 530.54 95.01 530.56 107.66 540.38 107.66 540.38 59.42"/><path class="cls-2" d="M98.88,402.64c13.08-9.84,22.8-7.17,28-4.1V380.73A27.07,27.07,0,0,0,73,376.85c19.8,8.83,25.91,25.79,25.91,25.79" transform="translate(-27.54 -342.3)"/><path class="cls-2" d="M118.9,401a2.53,2.53,0,1,1-2.53-2.54A2.52,2.52,0,0,1,118.9,401" transform="translate(-27.54 -342.3)"/><path class="cls-1" d="M144.07,401.89H131A13.22,13.22,0,0,0,120.42,408c-2.23,3.45-2.23,12-5.25,21.06a37.74,37.74,0,0,1-7.51,13.38c-6.85,7.79-18.54,11.65-26.54,13.46-7.37,2.24-8.31,8.12-8.43,9.64v7.74a27.07,27.07,0,1,0,54.14,0V456h17.24a27.08,27.08,0,0,0,0-54.15" transform="translate(-27.54 -342.3)"/><path class="cls-2" d="M47.76,407.09c-7.37,4.18-11.61,11.45-11.61,20.81A19.27,19.27,0,0,0,55.64,447.4c11.48,0,20.28-9.12,20.28-19.51a19.23,19.23,0,0,0-8.63-16.41c-1.7-1.21-1.56-2-1.33-2.31s0.9-.46,2.33-0.16c2.49,0.48,3.85,1,2.78-.68-1.28-1.95-5.23-3.53-5.23-3.53-6-2.21-11.45-5-13.66-6.69-3.87-3-7.92-7.22-8.23-9.69-0.21-1.8,1.15-.75,2-0.48s1.32,0.42,1.53.17c0.39-.46.18-1.84-2.31-4.38-4.66-4.8-7.28-17.13-2.38-26.48A28.72,28.72,0,0,1,64,342.3s-4.87,6.42-6.29,13.44a23.52,23.52,0,0,0,8.71,23.52c10.7,8.09,25.69,13.72,29.12,35.1,3.68,23.1-10.32,43.69-40.94,41.68C39.33,455,27.54,443.93,27.54,429c0-11.69,7.51-20.1,18-23.58,0.34-.1.85-0.25,1.19-0.33a15.88,15.88,0,0,1,4.33-.42c0.43,0,2,.24,2,0.24a19.3,19.3,0,0,0-5.3,2.2" transform="translate(-27.54 -342.3)"/></svg>