<svg id="레이어_1" data-name="레이어 1" xmlns="http://www.w3.org/2000/svg" viewBox="0 0 186.46 174.5"><defs><style>.cls-1{fill:#002b5e;}</style></defs><title>membership-cat-04</title><path class="cls-1" d="M222.93,479.72c7.36,0,12.75,3,12.75,7.59,0,4.16-4.48,7-10.83,7.49v4.94h16.68v3.15h-37.2v-3.15H221v-4.89c-6.4-.5-10.87-3.38-10.87-7.54C210.13,482.69,215.57,479.72,222.93,479.72Zm15.26-2.24H207.57v-3.06h30.62v3.06Zm-15.26,5.16c-4.39,0-8.5,1.51-8.5,4.71s4.11,4.66,8.5,4.66,8.5-1.55,8.5-4.66C231.43,484.06,227.27,482.64,222.93,482.64Zm8-11.15H214.79v-3.11h16.13v3.11Z" transform="translate(-204.33 -333.32)"/><path class="cls-1" d="M248,487a0.79,0.79,0,0,1-1-1V469.94a0.79,0.79,0,0,1,1-1h13.57v2.83h-11v4.57h10.1v2.74h-10.1V484h2.15a93.73,93.73,0,0,0,11.61-.82v2.93a97.58,97.58,0,0,1-12.61.91H248Zm4.66,10.65h22v-4.16h-23v-2.92H277.5a0.79,0.79,0,0,1,1,1v7.81a0.79,0.79,0,0,1-1,1H255.56v4.25h23.86v2.92H252.64a0.79,0.79,0,0,1-1-1v-7.91A0.79,0.79,0,0,1,252.64,497.63Zm9.51-22.17h5.16v-7.4h3.47v20.29h-3.47v-9.92h-5.16v-3Zm16.45-8.13v21h-3.47v-21h3.47Z" transform="translate(-204.33 -333.32)"/><path class="cls-1" d="M298.2,483.69l9,9.87A22.85,22.85,0,0,0,309,484.7H312a22.74,22.74,0,0,1-2.42,11.56l6.44,7.08H311.5l-3.79-4.25a13.13,13.13,0,0,1-10.46,5c-3.56,0-5.8-.41-8.32-2.19a8.5,8.5,0,0,1-3.52-7.36c0-4.3,3.34-7.72,7.68-11.06,0.14-.09.27-0.23,0.41-0.32-2.33-2.65-4.07-4.71-4.07-8,0-3.88,2.51-6.86,7.27-6.86,5,0,7.68,2.61,7.68,6.08C304.37,478.58,301.31,481.23,298.2,483.69Zm-9,10.83c0,4.25,4,6.4,7.59,6.4a10.51,10.51,0,0,0,8.68-4.34l-9.83-11C291.67,488.63,289.2,490.69,289.2,494.53Zm6.86-13c2.92-2.1,4.89-3.79,4.89-6.86,0-2-1.23-3.52-4.25-3.52a3.76,3.76,0,0,0-4,3.84c0,2.51,1.05,3.84,3.11,6.26Z" transform="translate(-204.33 -333.32)"/><path class="cls-1" d="M320.46,497.77a0.79,0.79,0,0,1-1-1V483.19a0.79,0.79,0,0,1,1-1h8.46v-9.55h-9.46v-3.15h12a0.79,0.79,0,0,1,1,1v13.85a0.79,0.79,0,0,1-1,1H323v9.32h3.11a77.28,77.28,0,0,0,10.83-.87v3.06a80.49,80.49,0,0,1-11.88,1h-4.62Zm13.62-17.32h5.39V468h3.43V505.9h-3.43V483.79h-5.39v-3.34Zm16.59-13.12v40.49h-3.52V467.33h3.52Z" transform="translate(-204.33 -333.32)"/><path class="cls-1" d="M380.15,498.68c-4.21-2.74-8.55-7.22-10.42-12.66-1.6,5.44-6.44,10.83-10.51,13.76l-3-2.51c7.31-4.57,11.56-11.61,11.56-21.07v-3.47h-8.64v-3.06h21.25v3.06H371.6v4.07c0,8.68,3.7,14.9,11.15,19.29Zm10.65-31.35v40.49h-3.61V483.37h-8.59V480h8.59v-12.7h3.61Z" transform="translate(-204.33 -333.32)"/><path class="cls-1" d="M335.09,348.54a7.22,7.22,0,0,0,7.27-7.17v-0.88a7.22,7.22,0,0,0-7.25-7.17H262.95a7.21,7.21,0,0,0-7.44,7.2v0.86a7.12,7.12,0,0,0,7.16,7.17H263v70.23h-0.38a7.17,7.17,0,0,0-7.16,7.22v0.84a7.11,7.11,0,0,0,7.16,7.15H263v17.46h25.7V433.68a5.89,5.89,0,0,1,5.94-5.83h8.39a5.88,5.88,0,0,1,5.92,5.83v17.77h25.69V434h0.4a7.21,7.21,0,0,0,7.27-7.15V426a7.23,7.23,0,0,0-7.27-7.22h-0.4V348.54h0.4Zm-48.16,66.19a2.8,2.8,0,0,1-2.79,2.8H277a2.81,2.81,0,0,1-2.79-2.8v-7.13a2.81,2.81,0,0,1,2.79-2.79h7.13a2.8,2.8,0,0,1,2.79,2.79v7.13Zm0-18.3a2.79,2.79,0,0,1-2.79,2.8H277a2.79,2.79,0,0,1-2.8-2.8v-7.12a2.79,2.79,0,0,1,2.8-2.79h7.11a2.79,2.79,0,0,1,2.79,2.79v7.12Zm0-18.29a2.79,2.79,0,0,1-2.79,2.79H277a2.79,2.79,0,0,1-2.8-2.79V371a2.79,2.79,0,0,1,2.8-2.79h7.11a2.79,2.79,0,0,1,2.79,2.79v7.12Zm0-18.29a2.8,2.8,0,0,1-2.79,2.79H277a2.8,2.8,0,0,1-2.8-2.79v-7.13a2.79,2.79,0,0,1,2.8-2.8h7.11a2.79,2.79,0,0,1,2.79,2.8v7.13Zm18.29,54.88a2.8,2.8,0,0,1-2.79,2.8h-7.12a2.8,2.8,0,0,1-2.79-2.8v-7.13a2.8,2.8,0,0,1,2.79-2.79h7.12a2.8,2.8,0,0,1,2.79,2.79v7.13Zm0-18.3a2.79,2.79,0,0,1-2.79,2.8h-7.12a2.79,2.79,0,0,1-2.79-2.8v-7.12a2.79,2.79,0,0,1,2.79-2.79h7.12a2.79,2.79,0,0,1,2.79,2.79v7.12Zm0-18.29a2.79,2.79,0,0,1-2.79,2.79h-7.12a2.79,2.79,0,0,1-2.79-2.79V371a2.79,2.79,0,0,1,2.79-2.79h7.12a2.79,2.79,0,0,1,2.79,2.79v7.12Zm0-18.29a2.8,2.8,0,0,1-2.79,2.79h-7.12a2.8,2.8,0,0,1-2.79-2.79v-7.13a2.79,2.79,0,0,1,2.79-2.8h7.12a2.79,2.79,0,0,1,2.79,2.8v7.13Zm18.3,54.88a2.81,2.81,0,0,1-2.79,2.8h-7.13a2.8,2.8,0,0,1-2.79-2.8v-7.13a2.79,2.79,0,0,1,2.79-2.79h7.13a2.8,2.8,0,0,1,2.79,2.79v7.13Zm0-18.3a2.8,2.8,0,0,1-2.79,2.8h-7.13a2.8,2.8,0,0,1-2.79-2.8v-7.12a2.8,2.8,0,0,1,2.79-2.79h7.13a2.8,2.8,0,0,1,2.79,2.79v7.12Zm0-18.29a2.8,2.8,0,0,1-2.79,2.79h-7.13a2.79,2.79,0,0,1-2.79-2.79V371a2.79,2.79,0,0,1,2.79-2.79h7.13a2.8,2.8,0,0,1,2.79,2.79v7.12Zm0-18.29a2.8,2.8,0,0,1-2.79,2.79h-7.13a2.8,2.8,0,0,1-2.79-2.79v-7.13a2.79,2.79,0,0,1,2.79-2.8h7.13a2.8,2.8,0,0,1,2.79,2.8v7.13Zm0,0" transform="translate(-204.33 -333.32)"/></svg>