<svg id="레이어_1" data-name="레이어 1" xmlns="http://www.w3.org/2000/svg" viewBox="0 0 552.35 104.36"><defs><style>.cls-1{fill:#79bd28;}.cls-2{fill:#f08500;}.cls-3{fill:#006ab5;}.cls-4{fill:#9d9d9e;}.cls-5{fill:#898788;}.cls-6{fill:#7d8488;}</style></defs><title>membership-item-03</title><path class="cls-1" d="M99.59,375.93c0.59,0.09.38-.18,0.13-0.32A52.57,52.57,0,0,0,28,394.93c-0.18.34-.21,0.7,0.27,0.29a40.61,40.61,0,0,1,17-9.31s10.26-2.89,20.63.17c0,0,2.86-5.25,12-8.32a49.9,49.9,0,0,1,21.74-1.84" transform="translate(-22.34 -368.61)"/><path class="cls-2" d="M105.25,379.81c-0.16-.21-0.44-0.65.17-0.23,9.66,6.33,21.62,23,20.59,44.18-1.5,30.74-25.94,45.94-40.83,48.83-0.42.09-.78,0-0.23-0.61A49.72,49.72,0,0,0,98.39,451.5c0.1-.57-0.26-0.46-0.56-0.29-5.33,3.27-16,8.46-26.49,9.59-0.8.09-.76-0.41,0-0.76,15.61-6.76,23.57-22.63,23.43-36.16-0.14-15.75-9.15-28.26-21.38-34.76-0.22-.12-0.19-0.34,0-0.33,6.93,0.37,18.91,4.08,27.53,13.9,1.25,1.43,1.12-2,.9-4.29-0.64-7,3.92-4.26,6.58-.31,2.11,3.15,3.46,6.62,4.11,5.39,1.67-3.15-.93-14.63-7.32-23.69" transform="translate(-22.34 -368.61)"/><path class="cls-3" d="M62.87,471.93c-18.06-7.56-29.52-25.45-28.59-39,1-15,11.45-20.92,17.86-21.15,7.37-.28,13.6,5.14,13.26,13.2-0.24,5.94-5.08,10.74-10.31,9.68s-7.37-7.16-3.66-11.72c0.43-.57-0.1-0.65-0.45-0.62-5.6.45-10.89,4.88-10.48,13.71,0.41,9,8.71,16.08,18,16.46C73.93,453.12,86,440.08,86.62,426.2c1-23.91-19-35-34.61-33.41-12.11,1.18-29.75,11-29.67,33.6,0.1,27.36,24.58,43.46,40.29,46.42,0,0,3.46.71,0.24-.89" transform="translate(-22.34 -368.61)"/><polygon class="cls-4" points="133.43 95.3 133.43 77.07 135.69 77.07 135.69 86.02 142.72 77.07 145.17 77.07 138.4 85.77 146.39 95.3 143.3 95.3 135.69 86.05 135.69 95.3 133.43 95.3"/><path class="cls-4" d="M174.74,462.35a3.07,3.07,0,0,0,2.65-1.35,8,8,0,0,0,0-7.59,3.31,3.31,0,0,0-5.3,0,8.18,8.18,0,0,0,0,7.59,3.06,3.06,0,0,0,2.65,1.35m0,1.81a5.53,5.53,0,0,1-4.43-1.87,8.75,8.75,0,0,1,0-10.18,6.2,6.2,0,0,1,8.87,0,8.84,8.84,0,0,1,0,10.18,5.58,5.58,0,0,1-4.44,1.87" transform="translate(-22.34 -368.61)"/><path class="cls-4" d="M182.59,463.91V450.52h2.28V453a4.32,4.32,0,0,1,4-2.8,5.66,5.66,0,0,1,.74.06v2.26a3.82,3.82,0,0,0-1.07-.2c-1.45,0-2.68.9-3.66,2.74v8.79h-2.28Z" transform="translate(-22.34 -368.61)"/><path class="cls-4" d="M192.66,455.78h5.61c0-2.47-.88-3.71-2.62-3.71s-2.77,1.24-3,3.71m7.87,7.66a13.52,13.52,0,0,1-4,.72,6,6,0,0,1-4.59-1.94,7.32,7.32,0,0,1-1.77-5.08,7.62,7.62,0,0,1,1.57-5,4.84,4.84,0,0,1,4-1.94,4.13,4.13,0,0,1,3.57,1.74,8.17,8.17,0,0,1,1.26,4.91v0.75h-8c0.34,3.14,1.82,4.72,4.42,4.72a10.09,10.09,0,0,0,3.54-.85v1.93Z" transform="translate(-22.34 -368.61)"/><path class="cls-4" d="M209.58,460.85v-3.41l-0.74,0a5.9,5.9,0,0,0-3.13.75,2.23,2.23,0,0,0-1.18,2,2,2,0,0,0,.59,1.46,2,2,0,0,0,1.43.61,4.66,4.66,0,0,0,3-1.36m0.32,1.33a5.9,5.9,0,0,1-4,2,3.55,3.55,0,0,1-2.62-1,3.51,3.51,0,0,1-1-2.62,3.84,3.84,0,0,1,1.75-3.37,9.16,9.16,0,0,1,5-1.16h0.55v-1.6a2,2,0,0,0-2.32-2.32,8.46,8.46,0,0,0-3.93,1.14v-2a11.36,11.36,0,0,1,4.39-1,4.22,4.22,0,0,1,3.12,1,4.27,4.27,0,0,1,1,3.13v6c0,1.4.39,2.07,1.21,2.07a3.52,3.52,0,0,0,.46,0l0.16,1.34a3.64,3.64,0,0,1-1.73.39c-1.06,0-1.77-.65-2.08-2" transform="translate(-22.34 -368.61)"/><path class="cls-4" d="M228,456.92h5.9L231,449.06Zm-4.93,7L230,445.68h2.4l6.78,18.22h-2.63l-1.9-5h-7.36l-1.87,5h-2.31Z" transform="translate(-22.34 -368.61)"/><path class="cls-4" d="M240.36,463.41v-2.23a8.93,8.93,0,0,0,3.92,1.17,2.58,2.58,0,0,0,1.65-.57,1.78,1.78,0,0,0,.65-1.41c0-.82-0.61-1.49-1.81-2l-1.37-.61c-2-.87-3-2.1-3-3.74a3.4,3.4,0,0,1,1.18-2.74,4.73,4.73,0,0,1,3.23-1,14.28,14.28,0,0,1,2.62.33l0.47,0.1v2a11.82,11.82,0,0,0-3.06-.56,2.49,2.49,0,0,0-1.59.46,1.5,1.5,0,0,0-.62,1.24c0,0.71.56,1.34,1.71,1.82l1.1,0.49a7.85,7.85,0,0,1,2.66,1.76,3.43,3.43,0,0,1,.79,2.31,3.56,3.56,0,0,1-1.35,2.88,4.89,4.89,0,0,1-3.36,1.12,12.19,12.19,0,0,1-3.82-.76" transform="translate(-22.34 -368.61)"/><path class="cls-4" d="M250.76,463.41v-2.23a9,9,0,0,0,4,1.17,2.53,2.53,0,0,0,1.63-.57,1.77,1.77,0,0,0,.65-1.41c0-.82-0.61-1.49-1.85-2l-1.33-.61c-2-.87-3-2.1-3-3.74a3.34,3.34,0,0,1,1.19-2.74,4.73,4.73,0,0,1,3.2-1,14.53,14.53,0,0,1,2.65.33l0.47,0.1v2a12,12,0,0,0-3.09-.56,2.56,2.56,0,0,0-1.6.46,1.46,1.46,0,0,0-.6,1.24c0,0.71.56,1.34,1.68,1.82l1.11,0.49a7.61,7.61,0,0,1,2.67,1.76,3.47,3.47,0,0,1,.79,2.31A3.62,3.62,0,0,1,258,463a5.12,5.12,0,0,1-3.41,1.12,12.45,12.45,0,0,1-3.83-.76" transform="translate(-22.34 -368.61)"/><path class="cls-4" d="M266.73,462.35a3.07,3.07,0,0,0,2.64-1.35,8,8,0,0,0,0-7.59,3.32,3.32,0,0,0-5.31,0,8,8,0,0,0,0,7.59,3.09,3.09,0,0,0,2.68,1.35m0,1.81a5.51,5.51,0,0,1-4.43-1.87,8.71,8.71,0,0,1,0-10.18,6.16,6.16,0,0,1,8.84,0,8.79,8.79,0,0,1,0,10.18,5.51,5.51,0,0,1-4.41,1.87" transform="translate(-22.34 -368.61)"/><path class="cls-4" d="M284.33,463.47a12.52,12.52,0,0,1-3.84.7,5.43,5.43,0,0,1-4.28-2,7.63,7.63,0,0,1-1.69-5,7.27,7.27,0,0,1,1.67-5.08,6.13,6.13,0,0,1,4.7-1.8,14.28,14.28,0,0,1,3.3.43v2.08a10.37,10.37,0,0,0-3.17-.69,3.41,3.41,0,0,0-2.84,1.4,5.9,5.9,0,0,0-1.08,3.72,5.56,5.56,0,0,0,1.13,3.65,3.42,3.42,0,0,0,2.86,1.39,7.13,7.13,0,0,0,3.23-.84v2.07Z" transform="translate(-22.34 -368.61)"/><path class="cls-4" d="M286.92,450.52h2.28v13.38h-2.28V450.52Zm0-4.84h2.28v2.42h-2.28v-2.42Z" transform="translate(-22.34 -368.61)"/><path class="cls-4" d="M299.2,460.85v-3.41l-0.74,0a5.9,5.9,0,0,0-3.11.75,2.22,2.22,0,0,0-1.17,2,1.94,1.94,0,0,0,.59,1.46,1.91,1.91,0,0,0,1.43.61,4.59,4.59,0,0,0,3-1.36m0.34,1.33a5.89,5.89,0,0,1-4,2,3.62,3.62,0,0,1-2.63-1,3.54,3.54,0,0,1-1-2.62,3.8,3.8,0,0,1,1.77-3.37,9.09,9.09,0,0,1,5-1.16h0.54v-1.6a2,2,0,0,0-2.31-2.32,8.42,8.42,0,0,0-3.92,1.14v-2a11.36,11.36,0,0,1,4.4-1,3.6,3.6,0,0,1,4.13,4.14v6c0,1.4.41,2.07,1.25,2.07a3.18,3.18,0,0,0,.42,0l0.17,1.34a3.65,3.65,0,0,1-1.74.39c-1.06,0-1.73-.65-2.06-2" transform="translate(-22.34 -368.61)"/><path class="cls-4" d="M311,463.88a7.07,7.07,0,0,1-1.84.29,3.63,3.63,0,0,1-2.77-1.05,4.24,4.24,0,0,1-.94-2.92v-7.82h-1.59v-1.85h1.59v-2.39l2.28-.24v2.63h3.35v1.85h-3.35v7.37c0,1.74.71,2.62,2.16,2.62a4.46,4.46,0,0,0,1.11-.17v1.69Z" transform="translate(-22.34 -368.61)"/><path class="cls-4" d="M313.44,450.52h2.29v13.38h-2.29V450.52Zm0-4.84h2.29v2.42h-2.29v-2.42Z" transform="translate(-22.34 -368.61)"/><path class="cls-4" d="M324.55,462.35A3,3,0,0,0,327.2,461a7.89,7.89,0,0,0,0-7.59,3,3,0,0,0-2.65-1.33,3.06,3.06,0,0,0-2.63,1.33,8,8,0,0,0,0,7.59,3.09,3.09,0,0,0,2.63,1.35m0,1.81a5.53,5.53,0,0,1-4.43-1.87,8.71,8.71,0,0,1,0-10.18,6.17,6.17,0,0,1,8.85,0,8.75,8.75,0,0,1,0,10.18,5.51,5.51,0,0,1-4.42,1.87" transform="translate(-22.34 -368.61)"/><path class="cls-4" d="M333.34,463.91V450.52h2.32V453a5.24,5.24,0,0,1,4.46-2.8,3.43,3.43,0,0,1,2.67,1.1,4.31,4.31,0,0,1,.94,3v9.59h-2.27v-8.83A4.11,4.11,0,0,0,341,453a1.52,1.52,0,0,0-1.37-.65c-1.43,0-2.79,1-4,2.93v8.65h-2.32Z" transform="translate(-22.34 -368.61)"/><path class="cls-4" d="M359.15,462.35a3,3,0,0,0,2.63-1.35,8,8,0,0,0,0-7.59,3,3,0,0,0-2.63-1.33,3.06,3.06,0,0,0-2.65,1.33,8.1,8.1,0,0,0,0,7.59,3.09,3.09,0,0,0,2.65,1.35m0,1.81a5.58,5.58,0,0,1-4.44-1.87,8.84,8.84,0,0,1,0-10.18,6.21,6.21,0,0,1,8.88,0,8.75,8.75,0,0,1,0,10.18,5.6,5.6,0,0,1-4.44,1.87" transform="translate(-22.34 -368.61)"/><path class="cls-4" d="M368.4,463.91V452.37h-1.81v-1.85h1.81v-1.58c0-3.17,1.37-4.74,4.1-4.74a9.52,9.52,0,0,1,2.67.41v1.94a8.6,8.6,0,0,0-2.53-.53,1.81,1.81,0,0,0-1.55.58,3.87,3.87,0,0,0-.4,2.1v1.83h3.16v1.85h-3.16v11.53H368.4Z" transform="translate(-22.34 -368.61)"/><polygon class="cls-4" points="364.11 95.3 364.11 77.07 366.59 77.07 366.59 84.73 374.77 84.73 374.77 77.07 377.27 77.07 377.27 95.3 374.77 95.3 374.77 86.69 366.59 86.69 366.59 95.3 364.11 95.3"/><path class="cls-4" d="M404.74,455.78h5.59q0-3.7-2.64-3.71c-1.78,0-2.76,1.24-3,3.71m7.86,7.66a13.69,13.69,0,0,1-4,.72,5.91,5.91,0,0,1-4.61-1.94,7.26,7.26,0,0,1-1.76-5.08,7.62,7.62,0,0,1,1.57-5,4.82,4.82,0,0,1,4-1.94,4.18,4.18,0,0,1,3.57,1.74,8.4,8.4,0,0,1,1.26,4.91v0.75h-8c0.32,3.14,1.78,4.72,4.43,4.72a10,10,0,0,0,3.54-.85v1.93Z" transform="translate(-22.34 -368.61)"/><path class="cls-4" d="M422,460.85v-3.41l-0.75,0a5.82,5.82,0,0,0-3.11.75,2.24,2.24,0,0,0-1.19,2,2,2,0,0,0,.59,1.46,2,2,0,0,0,1.46.61,4.62,4.62,0,0,0,3-1.36m0.32,1.33a5.92,5.92,0,0,1-4,2,3.6,3.6,0,0,1-2.64-1,3.54,3.54,0,0,1-1-2.62,3.83,3.83,0,0,1,1.77-3.37,9.08,9.08,0,0,1,5-1.16H422v-1.6a2,2,0,0,0-2.31-2.32,8.47,8.47,0,0,0-3.94,1.14v-2a11.38,11.38,0,0,1,4.4-1,3.59,3.59,0,0,1,4.13,4.14v6c0,1.4.42,2.07,1.24,2.07l0.45,0,0.16,1.34a3.69,3.69,0,0,1-1.74.39c-1.07,0-1.75-.65-2.06-2" transform="translate(-22.34 -368.61)"/><rect class="cls-4" x="406.04" y="75.86" width="2.28" height="19.43"/><path class="cls-4" d="M440.39,463.88a7.21,7.21,0,0,1-1.86.29,3.51,3.51,0,0,1-2.75-1.05,4.1,4.1,0,0,1-1-2.92v-7.82h-1.61v-1.85h1.61v-2.39l2.28-.24v2.63h3.34v1.85H437.1v7.37c0,1.74.72,2.62,2.17,2.62a4.74,4.74,0,0,0,1.12-.17v1.69Z" transform="translate(-22.34 -368.61)"/><path class="cls-4" d="M442.8,463.91V444.47h2.29V453a5.3,5.3,0,0,1,4.5-2.8,3.38,3.38,0,0,1,2.63,1.1,4.27,4.27,0,0,1,1,3v9.59h-2.27v-8.83a4.12,4.12,0,0,0-.4-2.11,1.61,1.61,0,0,0-1.4-.65c-1.43,0-2.77,1-4,2.93v8.65H442.8Z" transform="translate(-22.34 -368.61)"/><path class="cls-4" d="M468,454.72h1a4.72,4.72,0,0,0,3.34-1,3.84,3.84,0,0,0,1.19-3,2.69,2.69,0,0,0-.94-2.33,5.19,5.19,0,0,0-3.07-.7H468v7.11Zm-2.47,9.18V445.68h4.71a11.31,11.31,0,0,1,3.15.34,3.46,3.46,0,0,1,1.78,1.25,4.87,4.87,0,0,1,.94,3.19,5.8,5.8,0,0,1-1.87,4.56,7.43,7.43,0,0,1-5.16,1.65H468v7.24h-2.47Z" transform="translate(-22.34 -368.61)"/><path class="cls-4" d="M478,463.91V450.52h2.3V453a4.34,4.34,0,0,1,4-2.8,5.77,5.77,0,0,1,.74.06v2.26a3.74,3.74,0,0,0-1.06-.2c-1.46,0-2.68.9-3.66,2.74v8.79H478Z" transform="translate(-22.34 -368.61)"/><path class="cls-4" d="M492,462.35a3,3,0,0,0,2.66-1.35,8,8,0,0,0,0-7.59,3,3,0,0,0-2.66-1.33,3.06,3.06,0,0,0-2.65,1.33,8.1,8.1,0,0,0,0,7.59,3.09,3.09,0,0,0,2.65,1.35m0,1.81a5.53,5.53,0,0,1-4.43-1.87,8.75,8.75,0,0,1,0-10.18,6.18,6.18,0,0,1,8.85,0,8.62,8.62,0,0,1,0,10.18,5.54,5.54,0,0,1-4.42,1.87" transform="translate(-22.34 -368.61)"/><path class="cls-4" d="M500.81,463.91V450.52h2.31V453a4.92,4.92,0,0,1,4.29-2.8,3.52,3.52,0,0,1,3.5,2.8,4.83,4.83,0,0,1,4.25-2.8,3.27,3.27,0,0,1,2.59,1,4.07,4.07,0,0,1,.92,2.89v9.71h-2.27v-9.3c0-1.52-.57-2.28-1.73-2.28s-2.45.9-3.76,2.66v8.93h-2.31v-9.35c0-1.54-.57-2.29-1.72-2.29s-2.42.89-3.75,2.67v9h-2.31Z" transform="translate(-22.34 -368.61)"/><path class="cls-4" d="M527.39,462.35A3.15,3.15,0,0,0,530,461a8.1,8.1,0,0,0,0-7.59,3.12,3.12,0,0,0-2.66-1.33,3,3,0,0,0-2.65,1.33,8.09,8.09,0,0,0,0,7.59,3.07,3.07,0,0,0,2.65,1.35m0,1.81a5.49,5.49,0,0,1-4.43-1.87,8.71,8.71,0,0,1,0-10.18,5.53,5.53,0,0,1,4.43-1.87,5.62,5.62,0,0,1,4.42,1.87,8.84,8.84,0,0,1,0,10.18,5.58,5.58,0,0,1-4.42,1.87" transform="translate(-22.34 -368.61)"/><path class="cls-4" d="M541.86,463.88a7.18,7.18,0,0,1-1.85.29,3.52,3.52,0,0,1-2.76-1.05,4.1,4.1,0,0,1-1-2.92v-7.82h-1.59v-1.85h1.59v-2.39l2.28-.24v2.63h3.37v1.85h-3.37v7.37c0,1.74.73,2.62,2.17,2.62a4.84,4.84,0,0,0,1.13-.17v1.69Z" transform="translate(-22.34 -368.61)"/><path class="cls-4" d="M544.28,450.52h2.27v13.38h-2.27V450.52Zm0-4.84h2.27v2.42h-2.27v-2.42Z" transform="translate(-22.34 -368.61)"/><path class="cls-4" d="M555.39,462.35a3.07,3.07,0,0,0,2.67-1.35,8.12,8.12,0,0,0,0-7.59,3,3,0,0,0-2.67-1.33,3,3,0,0,0-2.63,1.33,8.1,8.1,0,0,0,0,7.59,3,3,0,0,0,2.63,1.35m0,1.81a5.51,5.51,0,0,1-4.41-1.87,8.76,8.76,0,0,1,0-10.18,5.55,5.55,0,0,1,4.41-1.87,5.62,5.62,0,0,1,4.44,1.87,8.71,8.71,0,0,1,0,10.18,5.58,5.58,0,0,1-4.44,1.87" transform="translate(-22.34 -368.61)"/><path class="cls-4" d="M564.2,463.91V450.52h2.29V453c1.22-1.86,2.72-2.8,4.47-2.8a3.36,3.36,0,0,1,2.66,1.1,4.42,4.42,0,0,1,1,3v9.59h-2.29v-8.83a4.11,4.11,0,0,0-.41-2.11,1.55,1.55,0,0,0-1.4-.65c-1.41,0-2.76,1-4,2.93v8.65H564.2Z" transform="translate(-22.34 -368.61)"/><polygon class="cls-5" points="133.43 95.3 133.43 77.07 135.69 77.07 135.69 86.02 142.72 77.07 145.17 77.07 138.4 85.77 146.39 95.3 143.3 95.3 135.69 86.05 135.69 95.3 133.43 95.3"/><path class="cls-5" d="M174.74,462.35a3.07,3.07,0,0,0,2.65-1.35,8,8,0,0,0,0-7.59,3.31,3.31,0,0,0-5.3,0,8.18,8.18,0,0,0,0,7.59,3.06,3.06,0,0,0,2.65,1.35m0,1.81a5.53,5.53,0,0,1-4.43-1.87,8.75,8.75,0,0,1,0-10.18,6.2,6.2,0,0,1,8.87,0,8.84,8.84,0,0,1,0,10.18,5.58,5.58,0,0,1-4.44,1.87" transform="translate(-22.34 -368.61)"/><path class="cls-5" d="M182.59,463.91V450.52h2.28V453a4.32,4.32,0,0,1,4-2.8,5.66,5.66,0,0,1,.74.06v2.26a3.82,3.82,0,0,0-1.07-.2c-1.45,0-2.68.9-3.66,2.74v8.79h-2.28Z" transform="translate(-22.34 -368.61)"/><path class="cls-5" d="M192.66,455.78h5.61c0-2.47-.88-3.71-2.62-3.71s-2.77,1.24-3,3.71m7.87,7.66a13.52,13.52,0,0,1-4,.72,6,6,0,0,1-4.59-1.94,7.32,7.32,0,0,1-1.77-5.08,7.62,7.62,0,0,1,1.57-5,4.84,4.84,0,0,1,4-1.94,4.13,4.13,0,0,1,3.57,1.74,8.17,8.17,0,0,1,1.26,4.91v0.75h-8c0.34,3.14,1.82,4.72,4.42,4.72a10.09,10.09,0,0,0,3.54-.85v1.93Z" transform="translate(-22.34 -368.61)"/><path class="cls-5" d="M209.58,460.85v-3.41l-0.74,0a5.9,5.9,0,0,0-3.13.75,2.23,2.23,0,0,0-1.18,2,2,2,0,0,0,.59,1.46,2,2,0,0,0,1.43.61,4.66,4.66,0,0,0,3-1.36m0.32,1.33a5.9,5.9,0,0,1-4,2,3.55,3.55,0,0,1-2.62-1,3.51,3.51,0,0,1-1-2.62,3.84,3.84,0,0,1,1.75-3.37,9.16,9.16,0,0,1,5-1.16h0.55v-1.6a2,2,0,0,0-2.32-2.32,8.46,8.46,0,0,0-3.93,1.14v-2a11.36,11.36,0,0,1,4.39-1,4.22,4.22,0,0,1,3.12,1,4.27,4.27,0,0,1,1,3.13v6c0,1.4.39,2.07,1.21,2.07a3.52,3.52,0,0,0,.46,0l0.16,1.34a3.64,3.64,0,0,1-1.73.39c-1.06,0-1.77-.65-2.08-2" transform="translate(-22.34 -368.61)"/><path class="cls-5" d="M228,456.92h5.9L231,449.06Zm-4.93,7L230,445.68h2.4l6.78,18.22h-2.63l-1.9-5h-7.36l-1.87,5h-2.31Z" transform="translate(-22.34 -368.61)"/><path class="cls-5" d="M240.36,463.41v-2.23a8.93,8.93,0,0,0,3.92,1.17,2.58,2.58,0,0,0,1.65-.57,1.78,1.78,0,0,0,.65-1.41c0-.82-0.61-1.49-1.81-2l-1.37-.61c-2-.87-3-2.1-3-3.74a3.4,3.4,0,0,1,1.18-2.74,4.73,4.73,0,0,1,3.23-1,14.28,14.28,0,0,1,2.62.33l0.47,0.1v2a11.82,11.82,0,0,0-3.06-.56,2.49,2.49,0,0,0-1.59.46,1.5,1.5,0,0,0-.62,1.24c0,0.71.56,1.34,1.71,1.82l1.1,0.49a7.85,7.85,0,0,1,2.66,1.76,3.43,3.43,0,0,1,.79,2.31,3.56,3.56,0,0,1-1.35,2.88,4.89,4.89,0,0,1-3.36,1.12,12.19,12.19,0,0,1-3.82-.76" transform="translate(-22.34 -368.61)"/><path class="cls-5" d="M250.76,463.41v-2.23a9,9,0,0,0,4,1.17,2.53,2.53,0,0,0,1.63-.57,1.77,1.77,0,0,0,.65-1.41c0-.82-0.61-1.49-1.85-2l-1.33-.61c-2-.87-3-2.1-3-3.74a3.34,3.34,0,0,1,1.19-2.74,4.73,4.73,0,0,1,3.2-1,14.53,14.53,0,0,1,2.65.33l0.47,0.1v2a12,12,0,0,0-3.09-.56,2.56,2.56,0,0,0-1.6.46,1.46,1.46,0,0,0-.6,1.24c0,0.71.56,1.34,1.68,1.82l1.11,0.49a7.61,7.61,0,0,1,2.67,1.76,3.47,3.47,0,0,1,.79,2.31A3.62,3.62,0,0,1,258,463a5.12,5.12,0,0,1-3.41,1.12,12.45,12.45,0,0,1-3.83-.76" transform="translate(-22.34 -368.61)"/><path class="cls-5" d="M266.73,462.35a3.07,3.07,0,0,0,2.64-1.35,8,8,0,0,0,0-7.59,3.32,3.32,0,0,0-5.31,0,8,8,0,0,0,0,7.59,3.09,3.09,0,0,0,2.68,1.35m0,1.81a5.51,5.51,0,0,1-4.43-1.87,8.71,8.71,0,0,1,0-10.18,6.16,6.16,0,0,1,8.84,0,8.79,8.79,0,0,1,0,10.18,5.51,5.51,0,0,1-4.41,1.87" transform="translate(-22.34 -368.61)"/><path class="cls-5" d="M284.33,463.47a12.52,12.52,0,0,1-3.84.7,5.43,5.43,0,0,1-4.28-2,7.63,7.63,0,0,1-1.69-5,7.27,7.27,0,0,1,1.67-5.08,6.13,6.13,0,0,1,4.7-1.8,14.28,14.28,0,0,1,3.3.43v2.08a10.37,10.37,0,0,0-3.17-.69,3.41,3.41,0,0,0-2.84,1.4,5.9,5.9,0,0,0-1.08,3.72,5.56,5.56,0,0,0,1.13,3.65,3.42,3.42,0,0,0,2.86,1.39,7.13,7.13,0,0,0,3.23-.84v2.07Z" transform="translate(-22.34 -368.61)"/><path class="cls-5" d="M286.92,450.52h2.28v13.38h-2.28V450.52Zm0-4.84h2.28v2.42h-2.28v-2.42Z" transform="translate(-22.34 -368.61)"/><path class="cls-5" d="M299.2,460.85v-3.41l-0.74,0a5.9,5.9,0,0,0-3.11.75,2.22,2.22,0,0,0-1.17,2,1.94,1.94,0,0,0,.59,1.46,1.91,1.91,0,0,0,1.43.61,4.59,4.59,0,0,0,3-1.36m0.34,1.33a5.89,5.89,0,0,1-4,2,3.62,3.62,0,0,1-2.63-1,3.54,3.54,0,0,1-1-2.62,3.8,3.8,0,0,1,1.77-3.37,9.09,9.09,0,0,1,5-1.16h0.54v-1.6a2,2,0,0,0-2.31-2.32,8.42,8.42,0,0,0-3.92,1.14v-2a11.36,11.36,0,0,1,4.4-1,3.6,3.6,0,0,1,4.13,4.14v6c0,1.4.41,2.07,1.25,2.07a3.18,3.18,0,0,0,.42,0l0.17,1.34a3.65,3.65,0,0,1-1.74.39c-1.06,0-1.73-.65-2.06-2" transform="translate(-22.34 -368.61)"/><path class="cls-5" d="M311,463.88a7.07,7.07,0,0,1-1.84.29,3.63,3.63,0,0,1-2.77-1.05,4.24,4.24,0,0,1-.94-2.92v-7.82h-1.59v-1.85h1.59v-2.39l2.28-.24v2.63h3.35v1.85h-3.35v7.37c0,1.74.71,2.62,2.16,2.62a4.46,4.46,0,0,0,1.11-.17v1.69Z" transform="translate(-22.34 -368.61)"/><path class="cls-5" d="M313.44,450.52h2.29v13.38h-2.29V450.52Zm0-4.84h2.29v2.42h-2.29v-2.42Z" transform="translate(-22.34 -368.61)"/><path class="cls-5" d="M324.55,462.35A3,3,0,0,0,327.2,461a7.89,7.89,0,0,0,0-7.59,3,3,0,0,0-2.65-1.33,3.06,3.06,0,0,0-2.63,1.33,8,8,0,0,0,0,7.59,3.09,3.09,0,0,0,2.63,1.35m0,1.81a5.53,5.53,0,0,1-4.43-1.87,8.71,8.71,0,0,1,0-10.18,6.17,6.17,0,0,1,8.85,0,8.75,8.75,0,0,1,0,10.18,5.51,5.51,0,0,1-4.42,1.87" transform="translate(-22.34 -368.61)"/><path class="cls-5" d="M333.34,463.91V450.52h2.32V453a5.24,5.24,0,0,1,4.46-2.8,3.43,3.43,0,0,1,2.67,1.1,4.31,4.31,0,0,1,.94,3v9.59h-2.27v-8.83A4.11,4.11,0,0,0,341,453a1.52,1.52,0,0,0-1.37-.65c-1.43,0-2.79,1-4,2.93v8.65h-2.32Z" transform="translate(-22.34 -368.61)"/><path class="cls-5" d="M359.15,462.35a3,3,0,0,0,2.63-1.35,8,8,0,0,0,0-7.59,3,3,0,0,0-2.63-1.33,3.06,3.06,0,0,0-2.65,1.33,8.1,8.1,0,0,0,0,7.59,3.09,3.09,0,0,0,2.65,1.35m0,1.81a5.58,5.58,0,0,1-4.44-1.87,8.84,8.84,0,0,1,0-10.18,6.21,6.21,0,0,1,8.88,0,8.75,8.75,0,0,1,0,10.18,5.6,5.6,0,0,1-4.44,1.87" transform="translate(-22.34 -368.61)"/><path class="cls-5" d="M368.4,463.91V452.37h-1.81v-1.85h1.81v-1.58c0-3.17,1.37-4.74,4.1-4.74a9.52,9.52,0,0,1,2.67.41v1.94a8.6,8.6,0,0,0-2.53-.53,1.81,1.81,0,0,0-1.55.58,3.87,3.87,0,0,0-.4,2.1v1.83h3.16v1.85h-3.16v11.53H368.4Z" transform="translate(-22.34 -368.61)"/><polygon class="cls-5" points="364.11 95.3 364.11 77.07 366.59 77.07 366.59 84.73 374.77 84.73 374.77 77.07 377.27 77.07 377.27 95.3 374.77 95.3 374.77 86.69 366.59 86.69 366.59 95.3 364.11 95.3"/><path class="cls-5" d="M404.74,455.78h5.59q0-3.7-2.64-3.71c-1.78,0-2.76,1.24-3,3.71m7.86,7.66a13.69,13.69,0,0,1-4,.72,5.91,5.91,0,0,1-4.61-1.94,7.26,7.26,0,0,1-1.76-5.08,7.62,7.62,0,0,1,1.57-5,4.82,4.82,0,0,1,4-1.94,4.18,4.18,0,0,1,3.57,1.74,8.4,8.4,0,0,1,1.26,4.91v0.75h-8c0.32,3.14,1.78,4.72,4.43,4.72a10,10,0,0,0,3.54-.85v1.93Z" transform="translate(-22.34 -368.61)"/><path class="cls-5" d="M422,460.85v-3.41l-0.75,0a5.82,5.82,0,0,0-3.11.75,2.24,2.24,0,0,0-1.19,2,2,2,0,0,0,.59,1.46,2,2,0,0,0,1.46.61,4.62,4.62,0,0,0,3-1.36m0.32,1.33a5.92,5.92,0,0,1-4,2,3.6,3.6,0,0,1-2.64-1,3.54,3.54,0,0,1-1-2.62,3.83,3.83,0,0,1,1.77-3.37,9.08,9.08,0,0,1,5-1.16H422v-1.6a2,2,0,0,0-2.31-2.32,8.47,8.47,0,0,0-3.94,1.14v-2a11.38,11.38,0,0,1,4.4-1,3.59,3.59,0,0,1,4.13,4.14v6c0,1.4.42,2.07,1.24,2.07l0.45,0,0.16,1.34a3.69,3.69,0,0,1-1.74.39c-1.07,0-1.75-.65-2.06-2" transform="translate(-22.34 -368.61)"/><rect class="cls-5" x="406.04" y="75.86" width="2.28" height="19.43"/><path class="cls-5" d="M440.39,463.88a7.21,7.21,0,0,1-1.86.29,3.51,3.51,0,0,1-2.75-1.05,4.1,4.1,0,0,1-1-2.92v-7.82h-1.61v-1.85h1.61v-2.39l2.28-.24v2.63h3.34v1.85H437.1v7.37c0,1.74.72,2.62,2.17,2.62a4.74,4.74,0,0,0,1.12-.17v1.69Z" transform="translate(-22.34 -368.61)"/><path class="cls-5" d="M442.8,463.91V444.47h2.29V453a5.3,5.3,0,0,1,4.5-2.8,3.38,3.38,0,0,1,2.63,1.1,4.27,4.27,0,0,1,1,3v9.59h-2.27v-8.83a4.12,4.12,0,0,0-.4-2.11,1.61,1.61,0,0,0-1.4-.65c-1.43,0-2.77,1-4,2.93v8.65H442.8Z" transform="translate(-22.34 -368.61)"/><path class="cls-5" d="M468,454.72h1a4.72,4.72,0,0,0,3.34-1,3.84,3.84,0,0,0,1.19-3,2.69,2.69,0,0,0-.94-2.33,5.19,5.19,0,0,0-3.07-.7H468v7.11Zm-2.47,9.18V445.68h4.71a11.31,11.31,0,0,1,3.15.34,3.46,3.46,0,0,1,1.78,1.25,4.87,4.87,0,0,1,.94,3.19,5.8,5.8,0,0,1-1.87,4.56,7.43,7.43,0,0,1-5.16,1.65H468v7.24h-2.47Z" transform="translate(-22.34 -368.61)"/><path class="cls-5" d="M478,463.91V450.52h2.3V453a4.34,4.34,0,0,1,4-2.8,5.77,5.77,0,0,1,.74.06v2.26a3.74,3.74,0,0,0-1.06-.2c-1.46,0-2.68.9-3.66,2.74v8.79H478Z" transform="translate(-22.34 -368.61)"/><path class="cls-5" d="M492,462.35a3,3,0,0,0,2.66-1.35,8,8,0,0,0,0-7.59,3,3,0,0,0-2.66-1.33,3.06,3.06,0,0,0-2.65,1.33,8.1,8.1,0,0,0,0,7.59,3.09,3.09,0,0,0,2.65,1.35m0,1.81a5.53,5.53,0,0,1-4.43-1.87,8.75,8.75,0,0,1,0-10.18,6.18,6.18,0,0,1,8.85,0,8.62,8.62,0,0,1,0,10.18,5.54,5.54,0,0,1-4.42,1.87" transform="translate(-22.34 -368.61)"/><path class="cls-5" d="M500.81,463.91V450.52h2.31V453a4.92,4.92,0,0,1,4.29-2.8,3.52,3.52,0,0,1,3.5,2.8,4.83,4.83,0,0,1,4.25-2.8,3.27,3.27,0,0,1,2.59,1,4.07,4.07,0,0,1,.92,2.89v9.71h-2.27v-9.3c0-1.52-.57-2.28-1.73-2.28s-2.45.9-3.76,2.66v8.93h-2.31v-9.35c0-1.54-.57-2.29-1.72-2.29s-2.42.89-3.75,2.67v9h-2.31Z" transform="translate(-22.34 -368.61)"/><path class="cls-5" d="M527.39,462.35A3.15,3.15,0,0,0,530,461a8.1,8.1,0,0,0,0-7.59,3.12,3.12,0,0,0-2.66-1.33,3,3,0,0,0-2.65,1.33,8.09,8.09,0,0,0,0,7.59,3.07,3.07,0,0,0,2.65,1.35m0,1.81a5.49,5.49,0,0,1-4.43-1.87,8.71,8.71,0,0,1,0-10.18,5.53,5.53,0,0,1,4.43-1.87,5.62,5.62,0,0,1,4.42,1.87,8.84,8.84,0,0,1,0,10.18,5.58,5.58,0,0,1-4.42,1.87" transform="translate(-22.34 -368.61)"/><path class="cls-5" d="M541.86,463.88a7.18,7.18,0,0,1-1.85.29,3.52,3.52,0,0,1-2.76-1.05,4.1,4.1,0,0,1-1-2.92v-7.82h-1.59v-1.85h1.59v-2.39l2.28-.24v2.63h3.37v1.85h-3.37v7.37c0,1.74.73,2.62,2.17,2.62a4.84,4.84,0,0,0,1.13-.17v1.69Z" transform="translate(-22.34 -368.61)"/><path class="cls-5" d="M544.28,450.52h2.27v13.38h-2.27V450.52Zm0-4.84h2.27v2.42h-2.27v-2.42Z" transform="translate(-22.34 -368.61)"/><path class="cls-5" d="M555.39,462.35a3.07,3.07,0,0,0,2.67-1.35,8.12,8.12,0,0,0,0-7.59,3,3,0,0,0-2.67-1.33,3,3,0,0,0-2.63,1.33,8.1,8.1,0,0,0,0,7.59,3,3,0,0,0,2.63,1.35m0,1.81a5.51,5.51,0,0,1-4.41-1.87,8.76,8.76,0,0,1,0-10.18,5.55,5.55,0,0,1,4.41-1.87,5.62,5.62,0,0,1,4.44,1.87,8.71,8.71,0,0,1,0,10.18,5.58,5.58,0,0,1-4.44,1.87" transform="translate(-22.34 -368.61)"/><path class="cls-5" d="M564.2,463.91V450.52h2.29V453c1.22-1.86,2.72-2.8,4.47-2.8a3.36,3.36,0,0,1,2.66,1.1,4.42,4.42,0,0,1,1,3v9.59h-2.29v-8.83a4.11,4.11,0,0,0-.41-2.11,1.55,1.55,0,0,0-1.4-.65c-1.41,0-2.76,1-4,2.93v8.65H564.2Z" transform="translate(-22.34 -368.61)"/><path class="cls-4" d="M173.13,428h24.6v5.17H169.29a4,4,0,0,1-4-4V416.25h6.9v10.67a1.05,1.05,0,0,0,1,1.06" transform="translate(-22.34 -368.61)"/><path class="cls-4" d="M284,428h25v5.17H280.1a4.06,4.06,0,0,1-4.06-4V416.25H283V426.9a1.06,1.06,0,0,0,1,1.07" transform="translate(-22.34 -368.61)"/><path class="cls-4" d="M388.59,428h26.16v5.17h-30a4,4,0,0,1-4-4V416.25h6.9V426.9a1,1,0,0,0,1,1.07" transform="translate(-22.34 -368.61)"/><path class="cls-4" d="M343.46,429.87c-3.74,0-6.75-3.34-6.75-7.48s3-7.46,6.75-7.46,6.72,3.34,6.72,7.46-3,7.48-6.72,7.48m13.75-8.53c-0.58-6.57-6.52-11.73-13.73-11.73-7.62,0-13.79,5.73-13.79,12.79s6.17,12.8,13.79,12.8a13.79,13.79,0,0,0,13.07-8.67,12.55,12.55,0,0,0,.73-4.14,9,9,0,0,0-.06-1.05" transform="translate(-22.34 -368.61)"/><path class="cls-4" d="M342.13,383.92H319.59v5.21h16.2v0.75a15.91,15.91,0,0,1-1.45,6.64,19.26,19.26,0,0,1-3.93,5.69,21.76,21.76,0,0,1-6.07,4.33,27.91,27.91,0,0,1-7.76,2.36,0.29,0.29,0,0,0-.26.15,0.38,0.38,0,0,0,.11.32l3,3.83a29,29,0,0,0,7.5-2.11,27.58,27.58,0,0,0,7.92-4.84,26.5,26.5,0,0,0,6-7.61,22.05,22.05,0,0,0,2.46-10.72v-2.83a1.14,1.14,0,0,0-1.14-1.15" transform="translate(-22.34 -368.61)"/><path class="cls-4" d="M462.37,381.29V412a0.06,0.06,0,0,1-.06,0,10.14,10.14,0,0,1-3,1.11,19.59,19.59,0,0,1-2.48.33c-0.25,0-.49,0-0.74,0H437.49a1.07,1.07,0,0,1-1-1.07v-8.72h16.79a1.11,1.11,0,0,0,1.23-1.12v-18a1.16,1.16,0,0,0-1.07-1H429.58v5.19h18v9.75h-18v16.13a4,4,0,0,0,4,4h22.73a14.68,14.68,0,0,0,3.18-.38,8.33,8.33,0,0,0,2.84-1.1v17.08h6.93v-53h-6.93Z" transform="translate(-22.34 -368.61)"/><path class="cls-4" d="M400.56,383.92H374.86v5.18h18.9a1.15,1.15,0,0,1,1,1.07v3.58c0,0.9-.06,1.79-0.11,2.68a25.91,25.91,0,0,1-1.6,6.91h6.37a10.13,10.13,0,0,0,1.92-4,15.07,15.07,0,0,0,.37-3.38V385.07a1.15,1.15,0,0,0-1.14-1.15" transform="translate(-22.34 -368.61)"/><path class="cls-4" d="M174.93,401.55c-0.78,2.59-2.72,4.44-5.05,4.44s-4.24-1.85-5-4.44a7.51,7.51,0,0,1,0-5c0.8-2.6,2.76-4.43,5-4.43s4.28,1.83,5.05,4.43a7.32,7.32,0,0,1,0,5m10.83-15.21H173.35v-6.55h-6.92v6.55H154v5.18h6a12.52,12.52,0,1,0,19.8,0h6v-5.18Z" transform="translate(-22.34 -368.61)"/><polygon class="cls-4" points="182.3 27.03 175.55 27.03 175.55 12.71 168.63 12.71 168.63 50.69 175.55 50.69 175.55 32.23 182.3 32.23 182.3 27.03"/><polygon class="cls-4" points="279.7 12.71 279.7 27.65 270.36 27.65 270.36 32.85 279.7 32.85 279.7 50.69 286.62 50.69 286.62 12.71 279.7 12.71"/><path class="cls-4" d="M257,406.69V401.5H250a9.61,9.61,0,0,0,1.33-3.06,23.09,23.09,0,0,0,.31-4.52v-10a0.78,0.78,0,0,0-.89-0.88H213.91v5.18h30.15a0.73,0.73,0,0,1,.78.77v3.35a60.19,60.19,0,0,1-.35,6.26,5.47,5.47,0,0,1-1,3h-34.7v5.18h20.6v8.53H214v5.18h29.73a1.07,1.07,0,0,1,1.11,1.07v12.85h6.9V416.26a1.08,1.08,0,0,0-1-1H236.35v-8.53H257Z" transform="translate(-22.34 -368.61)"/><polygon class="cls-4" points="344.11 24.04 337.47 24.04 337.47 12.73 330.56 12.73 330.56 42.22 337.47 42.22 337.47 29.24 344.11 29.24 344.11 24.04"/><path class="cls-4" d="M290,383.92H267.5v5.21h16.23v0.75a16.05,16.05,0,0,1-1.47,6.64,19.27,19.27,0,0,1-3.92,5.69,21.8,21.8,0,0,1-6.08,4.33,27.83,27.83,0,0,1-7.77,2.36,0.3,0.3,0,0,0-.23.15,0.31,0.31,0,0,0,.1.32l3,3.83a28.87,28.87,0,0,0,7.47-2.11,27,27,0,0,0,13.93-12.46,22.38,22.38,0,0,0,2.44-10.72v-2.83a1.15,1.15,0,0,0-1.17-1.15" transform="translate(-22.34 -368.61)"/><path class="cls-4" d="M421.76,396h-7V381.29h-6.93v24.35a8.91,8.91,0,0,1-2.85,1.08,13.32,13.32,0,0,1-2.77.36H388.9V395.49H382v11.59H371v5.19h30.45a18.69,18.69,0,0,0,3.2-.37,10.52,10.52,0,0,0,3.18-1.17v1.55h0V420h6.93V401.14h7V396Z" transform="translate(-22.34 -368.61)"/><path class="cls-4" d="M543.29,401.51a7.08,7.08,0,0,1-.45-2.48,6.88,6.88,0,0,1,.45-2.47c0.78-2.6,2.76-4.47,5.06-4.47s4.27,1.86,5,4.47a6.49,6.49,0,0,1,.47,2.47,6.67,6.67,0,0,1-.47,2.48c-0.75,2.6-2.71,4.44-5,4.44s-4.28-1.84-5.06-4.44m24.51-20.24v34.57a10.18,10.18,0,0,1-3,1.05,14.5,14.5,0,0,1-2.23.33H551.81v-6.35a12.36,12.36,0,0,0,9-11.83,12,12,0,0,0-2.61-7.52h6v-5.17H551.81v-6.55h-6.92v6.55H532.48v5.17h6a12.13,12.13,0,0,0-2.62,7.52,12.37,12.37,0,0,0,9.06,11.83v6.35H531v5.17h31.3A13.36,13.36,0,0,0,565,422a8.23,8.23,0,0,0,2.82-1.07v13.31h6.89v-53h-6.89Z" transform="translate(-22.34 -368.61)"/><path class="cls-4" d="M497.77,401.12c-0.72,2.35-2.47,3.94-4.42,3.94s-3.72-1.59-4.41-3.91a6.48,6.48,0,0,1-.41-2.23,6.72,6.72,0,0,1,.38-2.22c0.71-2.37,2.49-3.95,4.43-3.95s3.7,1.58,4.42,3.92a6.45,6.45,0,0,1,.42,2.24,6.27,6.27,0,0,1-.42,2.2m11.39-14.79H496.8v-6.53h-6.9v6.53H477.52v5.17h6.53a11.57,11.57,0,0,0-2.65,7.42,12,12,0,0,0,23.9,0,11.65,11.65,0,0,0-2.67-7.42h6.52v-5.17Z" transform="translate(-22.34 -368.61)"/><polygon class="cls-4" points="493.7 12.66 493.7 24.72 486.17 24.72 486.17 29.9 493.7 29.9 493.7 32.03 486.17 32.03 486.17 37.2 493.7 37.2 493.7 42.47 500.59 42.47 500.59 12.66 493.7 12.66"/><path class="cls-4" d="M515,427.85H496.48a1,1,0,0,1-1-1v-3.39H516v3.39a1,1,0,0,1-1,1m1-14.72v5.11H495.46v-5.11h-6.87V429a4,4,0,0,0,4,4h26.29a4,4,0,0,0,4-4V413.12H516Z" transform="translate(-22.34 -368.61)"/><path class="cls-6" d="M173.13,428h24.6v5.17H169.29a4,4,0,0,1-4-4V416.25h6.9v10.67a1.05,1.05,0,0,0,1,1.06" transform="translate(-22.34 -368.61)"/><path class="cls-6" d="M284,428h25v5.17H280.1a4.06,4.06,0,0,1-4.06-4V416.25H283V426.9a1.06,1.06,0,0,0,1,1.07" transform="translate(-22.34 -368.61)"/><path class="cls-6" d="M388.59,428h26.16v5.17h-30a4,4,0,0,1-4-4V416.25h6.9V426.9a1,1,0,0,0,1,1.07" transform="translate(-22.34 -368.61)"/><path class="cls-6" d="M343.46,429.87c-3.74,0-6.75-3.34-6.75-7.48s3-7.46,6.75-7.46,6.72,3.34,6.72,7.46-3,7.48-6.72,7.48m13.75-8.53c-0.58-6.57-6.52-11.73-13.73-11.73-7.62,0-13.79,5.73-13.79,12.79s6.17,12.8,13.79,12.8a13.79,13.79,0,0,0,13.07-8.67,12.55,12.55,0,0,0,.73-4.14,9,9,0,0,0-.06-1.05" transform="translate(-22.34 -368.61)"/><path class="cls-6" d="M342.13,383.92H319.59v5.21h16.2v0.75a15.91,15.91,0,0,1-1.45,6.64,19.26,19.26,0,0,1-3.93,5.69,21.76,21.76,0,0,1-6.07,4.33,27.91,27.91,0,0,1-7.76,2.36,0.29,0.29,0,0,0-.26.15,0.38,0.38,0,0,0,.11.32l3,3.83a29,29,0,0,0,7.5-2.11,27.58,27.58,0,0,0,7.92-4.84,26.5,26.5,0,0,0,6-7.61,22.05,22.05,0,0,0,2.46-10.72v-2.83a1.14,1.14,0,0,0-1.14-1.15" transform="translate(-22.34 -368.61)"/><path class="cls-6" d="M462.37,381.29V412a0.06,0.06,0,0,1-.06,0,10.14,10.14,0,0,1-3,1.11,19.59,19.59,0,0,1-2.48.33c-0.25,0-.49,0-0.74,0H437.49a1.07,1.07,0,0,1-1-1.07v-8.72h16.79a1.11,1.11,0,0,0,1.23-1.12v-18a1.16,1.16,0,0,0-1.07-1H429.58v5.19h18v9.75h-18v16.13a4,4,0,0,0,4,4h22.73a14.68,14.68,0,0,0,3.18-.38,8.33,8.33,0,0,0,2.84-1.1v17.08h6.93v-53h-6.93Z" transform="translate(-22.34 -368.61)"/><path class="cls-6" d="M400.56,383.92H374.86v5.18h18.9a1.15,1.15,0,0,1,1,1.07v3.58c0,0.9-.06,1.79-0.11,2.68a25.91,25.91,0,0,1-1.6,6.91h6.37a10.13,10.13,0,0,0,1.92-4,15.07,15.07,0,0,0,.37-3.38V385.07a1.15,1.15,0,0,0-1.14-1.15" transform="translate(-22.34 -368.61)"/><path class="cls-6" d="M174.93,401.55c-0.78,2.59-2.72,4.44-5.05,4.44s-4.24-1.85-5-4.44a7.51,7.51,0,0,1,0-5c0.8-2.6,2.76-4.43,5-4.43s4.28,1.83,5.05,4.43a7.32,7.32,0,0,1,0,5m10.83-15.21H173.35v-6.55h-6.92v6.55H154v5.18h6a12.52,12.52,0,1,0,19.8,0h6v-5.18Z" transform="translate(-22.34 -368.61)"/><polygon class="cls-6" points="182.3 27.03 175.55 27.03 175.55 12.71 168.63 12.71 168.63 50.69 175.55 50.69 175.55 32.23 182.3 32.23 182.3 27.03"/><polygon class="cls-6" points="279.7 12.71 279.7 27.65 270.36 27.65 270.36 32.85 279.7 32.85 279.7 50.69 286.62 50.69 286.62 12.71 279.7 12.71"/><path class="cls-6" d="M257,406.69V401.5H250a9.61,9.61,0,0,0,1.33-3.06,23.09,23.09,0,0,0,.31-4.52v-10a0.78,0.78,0,0,0-.89-0.88H213.91v5.18h30.15a0.73,0.73,0,0,1,.78.77v3.35a60.19,60.19,0,0,1-.35,6.26,5.47,5.47,0,0,1-1,3h-34.7v5.18h20.6v8.53H214v5.18h29.73a1.07,1.07,0,0,1,1.11,1.07v12.85h6.9V416.26a1.08,1.08,0,0,0-1-1H236.35v-8.53H257Z" transform="translate(-22.34 -368.61)"/><polygon class="cls-6" points="344.11 24.04 337.47 24.04 337.47 12.73 330.56 12.73 330.56 42.22 337.47 42.22 337.47 29.24 344.11 29.24 344.11 24.04"/><path class="cls-6" d="M290,383.92H267.5v5.21h16.23v0.75a16.05,16.05,0,0,1-1.47,6.64,19.27,19.27,0,0,1-3.92,5.69,21.8,21.8,0,0,1-6.08,4.33,27.83,27.83,0,0,1-7.77,2.36,0.3,0.3,0,0,0-.23.15,0.31,0.31,0,0,0,.1.32l3,3.83a28.87,28.87,0,0,0,7.47-2.11,27,27,0,0,0,13.93-12.46,22.38,22.38,0,0,0,2.44-10.72v-2.83a1.15,1.15,0,0,0-1.17-1.15" transform="translate(-22.34 -368.61)"/><path class="cls-6" d="M421.76,396h-7V381.29h-6.93v24.35a8.91,8.91,0,0,1-2.85,1.08,13.32,13.32,0,0,1-2.77.36H388.9V395.49H382v11.59H371v5.19h30.45a18.69,18.69,0,0,0,3.2-.37,10.52,10.52,0,0,0,3.18-1.17v1.55h0V420h6.93V401.14h7V396Z" transform="translate(-22.34 -368.61)"/><path class="cls-6" d="M543.29,401.51a7.08,7.08,0,0,1-.45-2.48,6.88,6.88,0,0,1,.45-2.47c0.78-2.6,2.76-4.47,5.06-4.47s4.27,1.86,5,4.47a6.49,6.49,0,0,1,.47,2.47,6.67,6.67,0,0,1-.47,2.48c-0.75,2.6-2.71,4.44-5,4.44s-4.28-1.84-5.06-4.44m24.51-20.24v34.57a10.18,10.18,0,0,1-3,1.05,14.5,14.5,0,0,1-2.23.33H551.81v-6.35a12.36,12.36,0,0,0,9-11.83,12,12,0,0,0-2.61-7.52h6v-5.17H551.81v-6.55h-6.92v6.55H532.48v5.17h6a12.13,12.13,0,0,0-2.62,7.52,12.37,12.37,0,0,0,9.06,11.83v6.35H531v5.17h31.3A13.36,13.36,0,0,0,565,422a8.23,8.23,0,0,0,2.82-1.07v13.31h6.89v-53h-6.89Z" transform="translate(-22.34 -368.61)"/><path class="cls-6" d="M497.77,401.12c-0.72,2.35-2.47,3.94-4.42,3.94s-3.72-1.59-4.41-3.91a6.48,6.48,0,0,1-.41-2.23,6.72,6.72,0,0,1,.38-2.22c0.71-2.37,2.49-3.95,4.43-3.95s3.7,1.58,4.42,3.92a6.45,6.45,0,0,1,.42,2.24,6.27,6.27,0,0,1-.42,2.2m11.39-14.79H496.8v-6.53h-6.9v6.53H477.52v5.17h6.53a11.57,11.57,0,0,0-2.65,7.42,12,12,0,0,0,23.9,0,11.65,11.65,0,0,0-2.67-7.42h6.52v-5.17Z" transform="translate(-22.34 -368.61)"/><polygon class="cls-6" points="493.7 12.66 493.7 24.72 486.17 24.72 486.17 29.9 493.7 29.9 493.7 32.03 486.17 32.03 486.17 37.2 493.7 37.2 493.7 42.47 500.59 42.47 500.59 12.66 493.7 12.66"/><path class="cls-6" d="M515,427.85H496.48a1,1,0,0,1-1-1v-3.39H516v3.39a1,1,0,0,1-1,1m1-14.72v5.11H495.46v-5.11h-6.87V429a4,4,0,0,0,4,4h26.29a4,4,0,0,0,4-4V413.12H516Z" transform="translate(-22.34 -368.61)"/></svg>