<svg id="레이어_1" data-name="레이어 1" xmlns="http://www.w3.org/2000/svg" viewBox="0 0 198.73 143.87"><defs><style>.cls-1{fill:#002b5e;}</style></defs><title>membership-cat-02</title><path class="cls-1" d="M201.11,482.29c7.31-4.11,11-9.69,11.06-16.77v-1.83h-8.82v-3.15h21.43v3.15H216v1.83c0,6.4,3.34,11.7,10.19,15.86L223.64,484a23.44,23.44,0,0,1-9.51-11.24c-1.65,4.48-5,8.5-9.92,12.11Zm6.81-29.34h12.16V456H207.92v-3.06Zm23.54,39.8V452.26h3.61v40.49h-3.61Z" transform="translate(-198.7 -348.93)"/><path class="cls-1" d="M252.52,467.34v13.53c3.88,0,11.06-.46,14.9-1V483a181.79,181.79,0,0,1-22.35,1.19h-4.39V481h4.39l4,0V467.34h3.47Zm9.78-12.66a0.79,0.79,0,0,1,1,1,138.26,138.26,0,0,1-1.87,19.65h-3.52a110.76,110.76,0,0,0,1.65-17.55H242.79v-3.06H262.3ZM272.59,469h5.8v3.25h-5.8V492.8H269V452.26h3.57V469Z" transform="translate(-198.7 -348.93)"/><path class="cls-1" d="M294.2,468.62l9,9.87a22.85,22.85,0,0,0,1.78-8.87h3.06a22.74,22.74,0,0,1-2.42,11.56l6.44,7.08H307.5L303.71,484a13.13,13.13,0,0,1-10.46,5c-3.56,0-5.8-.41-8.32-2.19a8.5,8.5,0,0,1-3.52-7.36c0-4.3,3.34-7.72,7.68-11.06,0.14-.09.28-0.23,0.41-0.32-2.33-2.65-4.07-4.71-4.07-8,0-3.88,2.51-6.86,7.27-6.86,5,0,7.68,2.61,7.68,6.08C300.37,463.5,297.31,466.15,294.2,468.62Zm-9,10.83c0,4.25,4,6.4,7.59,6.4a10.51,10.51,0,0,0,8.68-4.34l-9.82-11C287.67,473.56,285.2,475.61,285.2,479.45Zm6.85-13c2.93-2.1,4.89-3.79,4.89-6.86,0-2-1.23-3.52-4.25-3.52a3.76,3.76,0,0,0-4,3.84c0,2.51,1.05,3.84,3.11,6.26Z" transform="translate(-198.7 -348.93)"/><path class="cls-1" d="M324.18,474.47a10.86,10.86,0,1,1,10.65-10.83A10.57,10.57,0,0,1,324.18,474.47Zm0-3.29c4.39,0,6.9-3.38,6.9-7.54s-2.51-7.63-6.9-7.63-6.95,3.38-6.95,7.63S319.8,471.18,324.18,471.18Zm-4.94,7.59h3.66v10.05H346v3.11H320.21a0.79,0.79,0,0,1-1-1v-12.2Zm21.94,3.29V452.26h3.52v10h5.58v3.2H344.7v16.59h-3.52Z" transform="translate(-198.7 -348.93)"/><path class="cls-1" d="M364.49,467.34v13.53c3.88,0,11.06-.46,14.9-1V483A181.79,181.79,0,0,1,357,484.16h-4.39V481H357l4,0V467.34h3.47Zm9.78-12.66a0.79,0.79,0,0,1,1,1,138.26,138.26,0,0,1-1.87,19.65h-3.52a110.76,110.76,0,0,0,1.65-17.55H354.76v-3.06h19.51ZM384.56,469h5.8v3.25h-5.8V492.8H381V452.26h3.57V469Z" transform="translate(-198.7 -348.93)"/><path class="cls-1" d="M346.75,369.58a63.24,63.24,0,0,0-50.67,25.33,63.34,63.34,0,0,0,101.34,0,63.24,63.24,0,0,0-50.67-25.33h0Zm-6.33,12.67a6.33,6.33,0,1,1-6.33,6.33,6.33,6.33,0,0,1,6.33-6.33h0Zm32.22,25.46a56.45,56.45,0,0,1-12.36,4.59,57.52,57.52,0,0,1-27.07,0,56.64,56.64,0,0,1-12.36-4.59,57.55,57.55,0,0,1-16.59-12.8,57.55,57.55,0,0,1,16.59-12.8,56.74,56.74,0,0,1,10-4,19,19,0,1,0,31.78,0,56.62,56.62,0,0,1,10,4,57.5,57.5,0,0,1,16.59,12.8,57.48,57.48,0,0,1-16.59,12.8h0ZM381.29,362a76.1,76.1,0,0,0-69.06,0,76.41,76.41,0,0,0-16.14,11.09v10.81a70.24,70.24,0,0,1,19-14.28,69.78,69.78,0,0,1,63.3,0,70.23,70.23,0,0,1,19,14.28V373.12A76.35,76.35,0,0,0,381.29,362h0Zm0,0" transform="translate(-198.7 -348.93)"/><path class="cls-1" d="M276.36,358.06h-6.63v-6.64a2.49,2.49,0,0,0-2.5-2.49H255.82a2.51,2.51,0,0,0-2.52,2.49A22.55,22.55,0,0,0,237.69,358a22.81,22.81,0,0,0-27.1-3.57,24.64,24.64,0,0,0-10.81,28.29,18.94,18.94,0,0,0,3,6.24,23.72,23.72,0,0,1,2.8,5.27c1,3,.44,12.85-0.13,18.65,0,8.4,6.27,15.78,16,18.85a2.59,2.59,0,0,0,2.22-.56,2.89,2.89,0,0,0,1-2.21c0-16.2,6.73-27.09,13-27.09s13,10.89,13,27l2.4,0.29v0l-2.42.2a2.5,2.5,0,0,0,1,2,2.55,2.55,0,0,0,1.47.46,2.63,2.63,0,0,0,.73-0.09c9.72-3.07,16-10.48,16-19.12-0.56-5.53-1.08-15.4-.1-18.36a22.24,22.24,0,0,1,2.81-5.29,18.78,18.78,0,0,0,3-6,24.36,24.36,0,0,0,1.13-7.41v-1.13a2.48,2.48,0,0,0,2.2-2.45V360.6a2.55,2.55,0,0,0-2.52-2.54h0Zm-18,2.49v-6.61h6.41v6.61a2.51,2.51,0,0,0,2.5,2.52h6.61v6.39h-6.61a2.51,2.51,0,0,0-2.5,2.5v6.63h-6.41V372a2.52,2.52,0,0,0-2.52-2.5h-6.61v-6.39h6.61a2.52,2.52,0,0,0,2.52-2.52h0Zm-5-2.49H246.7a3.08,3.08,0,0,0-.81.14,17.66,17.66,0,0,1,7.42-1.76v1.62Zm17.38,23.64a14.82,14.82,0,0,1-2.32,4.53,28.88,28.88,0,0,0-3.38,6.44c-1.62,4.94-.27,18.87-0.1,20.2,0,5.24-3.55,10-9.28,12.8-0.88-16.4-8.44-28.84-17.94-28.84s-16.94,12.29-17.9,28.86c-5.75-2.77-9.3-7.54-9.3-12.56,0.14-1.59,1.49-15.52-.13-20.46a26.94,26.94,0,0,0-3.35-6.44,15,15,0,0,1-2.38-4.77,19.74,19.74,0,0,1-.93-5.92,19.36,19.36,0,0,1,9.4-16.77,17.82,17.82,0,0,1,22.61,4.53,2.51,2.51,0,0,0,2,.93,2.55,2.55,0,0,0,2-.93,18.29,18.29,0,0,1,5.21-4.43,2.44,2.44,0,0,0-.69,1.69V372a2.51,2.51,0,0,0,2.52,2.49h6.61v6.64a2.51,2.51,0,0,0,2.5,2.49h11.43a2.51,2.51,0,0,0,2.5-2.49v-6.64h1.88c0,0.32,0,.64,0,1.08a19.61,19.61,0,0,1-1,6.17h0ZM224.3,363.12a2.51,2.51,0,0,1-2.49,2.5,8.07,8.07,0,0,0-4.09,1.13,10.09,10.09,0,0,0-4.82,8.81,10,10,0,0,0,.49,3.11c0,0.12.19,0.63,0.22,0.73a18.78,18.78,0,0,0,1.13,1.84,36.41,36.41,0,0,1,4.35,8.57A2.5,2.5,0,0,1,217.5,393a2.28,2.28,0,0,1-.79.12,2.48,2.48,0,0,1-2.37-1.74,31,31,0,0,0-3.82-7.39,16.67,16.67,0,0,1-1.62-2.72c-0.05-.14-0.19-0.73-0.22-0.88a15,15,0,0,1-.78-4.82,15.14,15.14,0,0,1,7.29-13.15,13.22,13.22,0,0,1,6.61-1.79,2.5,2.5,0,0,1,2.49,2.52h0Zm0,0" transform="translate(-198.7 -348.93)"/></svg>