<svg id="레이어_1" data-name="레이어 1" xmlns="http://www.w3.org/2000/svg" viewBox="0 0 229.06 183.65"><defs><style>.cls-1{fill:#002b5e;}</style></defs><title>membership-cat-03</title><path class="cls-1" d="M203.48,487.13v6.08h16.68v3.11H183.1v-3.11h16.68v-6.08h3.7Zm12.06-9.64H203.71c0.23,5,8.68,8,14.3,8.82l-2.29,2.7c-4.48-.82-11.47-3.06-14.12-7.72-2.56,4.21-8.55,6.67-14.21,7.72l-2.29-2.74c6.4-1,14.17-3.93,14.35-8.77H187.67v-3h27.88v3Zm-28.43,29.61c0-4.39,4.84-7.49,14.53-7.49s14.44,3.2,14.44,7.54-4.66,7.5-14.44,7.5S187.12,511.4,187.12,507.11Zm4,0c0,3,3.88,4.75,10.56,4.75,6.44,0,10.42-1.78,10.42-4.71s-3.93-4.84-10.42-4.84C195,502.31,191.1,504.09,191.1,507.11Z" transform="translate(-183.1 -331)"/><path class="cls-1" d="M223.27,478.22h23.21V481H223.27v-2.79Zm11.56,4.66c6,0,10.05,2.7,10.05,6.54S240.63,496,234.83,496s-10.05-2.74-10.05-6.54S228.89,482.88,234.83,482.88Zm0,2.61c-4,0-6.35,1.55-6.35,3.93s2.38,4,6.35,4,6.35-1.74,6.35-4S238.81,485.49,234.83,485.49Zm5.94-9.46h-12v-2.79h12V476ZM229.26,512.5v-14h3.61v4.25h18.28v-4.25h3.52v14a0.79,0.79,0,0,1-1,1H230.22A0.79,0.79,0,0,1,229.26,512.5Zm3.61-2h18.28v-4.84H232.87v4.84Zm21.75-37.15v10.28h5.62v3.11h-5.62v9.6H251v-23h3.61Z" transform="translate(-183.1 -331)"/><path class="cls-1" d="M281.17,475.21a0.79,0.79,0,0,1,1,1c-1,10.74-8.18,18.37-18.6,22.12l-2.42-2.7c9.55-3.2,15.9-9.42,17-17.23H263.9v-3.15h17.28Zm-12,37.79a0.79,0.79,0,0,1-1-1V500h3.7v9.92h23.67V513H269.15Zm21.71-10.05V488.51h-8.5v-3.15h8.5v-12h3.61v29.61h-3.61Z" transform="translate(-183.1 -331)"/><path class="cls-1" d="M319.65,475.21a0.79,0.79,0,0,1,1,1c-1,10-7.54,17-18.33,20.66l-2.33-2.6c7.72-2.2,15-7.31,16.63-15.86H302.15v-3.15h17.5Zm-0.87,39.35c-8.32,0-13.76-3.2-13.76-8.18s5.58-8.23,13.76-8.23c8.41,0,13.85,3.24,13.85,8.23S327.2,514.55,318.79,514.55Zm-9.92-8.18c0,3.29,4.39,5.35,9.92,5.35,5.76,0,10.05-2.06,10.05-5.3s-4.25-5.3-10.05-5.3C313.21,501.12,308.87,503,308.87,506.38Zm22.85-33v9.87h5.62v3.11h-5.62v11.15h-3.56V473.33h3.56Z" transform="translate(-183.1 -331)"/><path class="cls-1" d="M358.64,475.21a0.79,0.79,0,0,1,1,1c-1.05,10-7.5,16.45-18.23,20.06L339,493.62c7.77-2.19,14.94-6.72,16.59-15.26H341.37v-3.15h17.27Zm-12.06,23.17h24.27a0.79,0.79,0,0,1,1,1v13.07a0.79,0.79,0,0,1-1,1H346.57a0.79,0.79,0,0,1-1-1V499.34A0.79,0.79,0,0,1,346.57,498.38Zm2.65,12h19v-9h-19v9Zm22.67-37.06v22.8h-3.61v-9.51h-8.45v-3.2h8.45v-10.1h3.61Z" transform="translate(-183.1 -331)"/><path class="cls-1" d="M400.23,478.27H392v2c0,6.58,5.71,11.33,10.88,13.12l-2.38,2.7c-3.11-1.37-8-4.52-10.37-9.09-1.74,4.71-6.31,8.18-10.56,10.28l-2.7-2.47c6.12-2.61,11.38-7.5,11.38-14.62v-1.92h-8.46v-3.06h20.47v3.06ZM385.74,513a0.79,0.79,0,0,1-1-1V500h3.7v9.87h23.67V513H385.74Zm21.71-10V473.33H411V503h-3.56Z" transform="translate(-183.1 -331)"/><path class="cls-1" d="M349.06,373.42a33.67,33.67,0,1,0-9.86,23.81,33.46,33.46,0,0,0,9.86-23.81h0Zm-53.62-20a28.21,28.21,0,1,1,39.9,39.9q-0.44.44-.9,0.86a26.82,26.82,0,0,0-8.25-5.64,19.81,19.81,0,1,0-21.6,0,26.88,26.88,0,0,0-8.25,5.64q-0.46-.42-0.9-0.86a28.25,28.25,0,0,1,0-39.9h0Zm20,32.88A14.35,14.35,0,1,1,329.74,372a14.37,14.37,0,0,1-14.35,14.35h0Zm-14.63,11.21a21.5,21.5,0,0,1,29.27,0,28.27,28.27,0,0,1-29.27,0h0Zm0,0" transform="translate(-183.1 -331)"/><path class="cls-1" d="M375.39,419.45l-23.82-23.82a42.44,42.44,0,1,0-55.19,15.75c0,0.2,0,.4,0,0.6v14.94a7.55,7.55,0,0,0,4.8,7v20a6.64,6.64,0,0,0,6.63,6.63H323A6.63,6.63,0,0,0,329.6,454v-20a7.56,7.56,0,0,0,4.8-7V412c0-.2,0-0.4,0-0.6q1.63-.81,3.19-1.77l23.82,23.82a9.88,9.88,0,1,0,14-14h0Zm-86.15-72.17a37,37,0,1,1,0,52.31,36.87,36.87,0,0,1,0-52.31h0Zm39.71,79.65a2.07,2.07,0,0,1-.61,1.47,2,2,0,0,1-1.46.6,2.73,2.73,0,0,0-2.73,2.73V454a1.17,1.17,0,0,1-1.16,1.17h-4.86v-20.2a2.73,2.73,0,0,0-5.46,0v20.2H307.8a1.17,1.17,0,0,1-1.17-1.17V431.72a2.73,2.73,0,0,0-2.73-2.73,2.08,2.08,0,0,1-2.08-2.07V413.64a42.66,42.66,0,0,0,27.11,0v13.28Zm42.58,2.64a4.42,4.42,0,0,1-6.26,0l-23.15-23.16a41.81,41.81,0,0,0,3.29-3,42.54,42.54,0,0,0,3-3.29l23.15,23.16a4.42,4.42,0,0,1,0,6.25h0Zm0,0" transform="translate(-183.1 -331)"/><path class="cls-1" d="M268.23,435.67V423.08a8.85,8.85,0,0,0-8.85-8.84h-0.14a8.85,8.85,0,0,0-8.85,8.84v18A10.43,10.43,0,0,1,240,451.48h-0.25a10.43,10.43,0,0,1-10.42-10.42v-23.3A20.9,20.9,0,0,0,248.39,397V380.11a5.8,5.8,0,1,0-3.61,0V397a17.28,17.28,0,0,1-17.27,17.27h-0.38A17.28,17.28,0,0,1,209.87,397V380.11a5.8,5.8,0,1,0-3.61,0V397a20.9,20.9,0,0,0,19.45,20.82v23.27a14,14,0,0,0,14,14H240a14,14,0,0,0,14-14v-18a5.24,5.24,0,0,1,5.24-5.24h0.14a5.24,5.24,0,0,1,5.24,5.24v12.59a9.79,9.79,0,1,0,3.61,0h0Zm-21.64-63.26a2.19,2.19,0,1,1-2.19,2.19,2.19,2.19,0,0,1,2.19-2.19h0Zm-38.52,0a2.19,2.19,0,1,1-2.19,2.19,2.19,2.19,0,0,1,2.19-2.19h0Zm58.36,79.07a6.19,6.19,0,1,1,6.19-6.19,6.19,6.19,0,0,1-6.19,6.19h0Zm0,0" transform="translate(-183.1 -331)"/></svg>